{"glyphs":{"0":{"ha":793,"x_min":0,"x_max":0,"o":"m 722 638 b 674 809 716 698 702 756 b 482 961 632 886 567 937 b 361 969 443 972 402 971 b 205 905 302 966 250 944 b 115 789 168 872 138 834 b 63 584 82 724 64 656 b 61 413 62 527 61 470 b 75 280 62 368 64 324 b 183 86 94 206 133 143 b 254 28 204 63 226 42 b 451 0 316 -3 383 -8 b 607 80 513 8 563 37 b 721 324 676 147 707 231 b 729 391 725 346 727 369 b 722 638 734 473 729 557 z m 498 363 b 479 282 498 335 491 308 b 399 221 463 249 440 221 b 317 280 358 221 333 246 b 295 372 303 309 295 340 b 295 574 295 439 294 507 b 313 675 296 608 302 642 b 346 726 320 695 331 711 b 449 725 376 754 419 754 b 491 641 473 702 484 672 b 499 561 496 615 500 588 b 499 470 499 531 499 500 b 498 470 499 470 499 470 b 498 363 498 434 499 399 z "},"1":{"ha":439,"x_min":0,"x_max":0,"o":"m 377 718 b 377 927 377 788 378 858 b 349 959 377 952 373 956 b 326 960 341 959 333 960 b 181 965 277 961 229 961 b 147 965 170 966 158 964 b 110 939 127 966 117 957 b 73 835 99 904 86 870 b 109 784 54 785 53 784 b 159 731 158 784 159 782 b 161 396 159 619 160 508 b 166 190 162 327 165 259 b 166 42 167 141 166 91 b 203 2 166 9 171 3 b 306 2 237 1 272 2 b 351 8 321 3 336 5 b 370 28 363 9 369 17 b 372 43 371 33 372 38 b 376 207 373 98 376 153 b 377 485 377 300 377 393 b 377 718 377 563 377 640 z "},"2":{"ha":760,"x_min":0,"x_max":0,"o":"m 644 -1 b 663 0 651 -1 657 -1 b 686 24 680 2 686 7 b 685 180 687 76 690 128 b 633 226 680 225 679 226 b 382 220 549 227 465 224 b 332 221 365 220 349 218 b 315 246 318 224 312 232 b 408 351 327 297 353 337 b 467 366 427 356 447 361 b 593 426 512 379 557 394 b 698 661 664 488 702 564 b 637 829 696 724 675 780 b 439 958 585 895 517 936 b 257 938 377 975 315 969 b 222 915 245 931 234 922 b 89 745 155 876 114 817 b 75 666 80 720 75 693 b 96 642 75 649 80 642 b 238 641 143 641 191 641 b 262 657 249 641 257 646 b 269 670 264 661 267 666 b 470 677 317 736 410 745 b 470 608 490 654 490 632 b 424 575 458 594 442 582 b 358 559 403 567 381 562 b 263 532 325 555 293 548 b 88 324 177 485 123 413 b 61 147 66 267 62 207 b 67 33 61 110 66 71 b 92 7 67 13 72 8 b 194 1 126 5 160 1 b 419 0 270 0 344 0 b 644 -1 494 -1 569 -1 z "},"3":{"ha":742,"x_min":0,"x_max":0,"o":"m 153 654 b 210 654 172 654 191 655 b 250 677 228 654 243 658 b 262 692 253 682 257 687 b 455 685 317 752 405 746 b 458 628 470 667 470 648 b 404 590 445 609 428 594 b 358 585 389 587 374 586 b 294 582 337 584 315 584 b 261 552 274 581 261 570 b 260 430 259 511 260 470 b 278 408 260 418 267 411 b 315 398 290 404 302 401 b 368 390 332 395 350 393 b 445 353 397 385 424 374 b 448 273 472 327 473 300 b 308 241 420 243 363 217 b 251 289 284 252 264 266 b 215 312 242 304 232 312 b 89 311 173 311 131 312 b 61 280 66 311 61 304 b 102 146 62 231 78 188 b 254 12 138 85 192 43 b 433 1 312 -16 372 -15 b 522 44 465 10 493 28 b 662 204 588 80 633 135 b 680 312 677 238 681 275 b 632 462 678 366 666 418 b 632 503 621 476 621 489 b 678 631 659 541 673 584 b 624 832 685 705 668 771 b 433 964 575 898 509 939 b 262 957 376 983 318 982 b 97 810 192 925 134 879 b 61 683 75 771 62 729 b 88 655 61 662 67 656 b 153 655 110 654 131 655 b 153 654 153 655 153 654 z "},"4":{"ha":781,"x_min":0,"x_max":0,"o":"m 612 683 b 611 931 612 765 612 848 b 611 950 611 937 611 943 b 594 967 610 960 604 966 b 430 970 539 970 485 971 b 393 946 413 969 402 961 b 355 885 381 925 369 904 b 232 688 312 821 272 754 b 76 426 180 600 131 511 b 65 382 67 412 65 398 b 62 299 64 354 62 326 b 62 222 61 273 61 248 b 89 197 63 204 70 199 b 96 197 91 197 94 197 b 306 195 166 196 236 196 b 375 195 329 195 352 195 b 416 156 411 194 415 190 b 416 53 417 121 416 87 b 417 22 416 43 415 32 b 438 -1 418 7 424 1 b 586 0 487 -5 537 -3 b 606 20 598 1 605 8 b 607 54 607 31 607 43 b 612 176 609 95 610 135 b 635 201 613 193 617 198 b 688 200 652 204 670 201 b 715 221 704 199 711 205 b 718 247 717 229 718 238 b 718 323 718 273 718 298 b 713 373 717 340 715 356 b 692 392 711 384 704 391 b 650 394 678 393 664 393 b 611 435 615 396 612 399 b 611 683 611 518 611 600 b 612 683 611 683 611 683 z m 410 422 b 387 398 409 404 404 399 b 276 398 350 397 313 398 b 265 419 263 398 258 407 b 288 458 272 432 280 445 b 375 593 317 503 346 548 b 385 609 378 598 381 604 b 400 617 389 613 393 620 b 408 601 407 614 408 607 b 409 574 409 592 409 583 b 409 510 409 553 409 531 b 410 510 409 510 410 510 b 410 422 410 480 410 451 z "},"5":{"ha":756,"x_min":0,"x_max":0,"o":"m 337 963 b 154 959 276 962 215 961 b 85 954 131 959 108 957 b 65 932 71 953 66 947 b 64 912 64 925 64 919 b 62 722 65 849 59 786 b 64 535 65 660 64 597 b 76 456 64 508 70 482 b 118 423 82 429 91 421 b 255 420 164 424 210 421 b 377 411 296 418 337 419 b 450 332 424 402 445 378 b 368 243 457 277 423 240 b 268 297 327 244 291 261 b 218 323 256 317 240 323 b 111 323 182 322 147 323 b 92 322 105 323 99 323 b 74 298 78 319 72 312 b 119 154 79 247 92 199 b 269 23 155 94 207 53 b 455 13 329 -6 392 -5 b 533 52 483 22 508 38 b 672 199 596 85 641 136 b 693 348 695 247 696 297 b 654 466 690 391 676 430 b 446 602 605 543 534 584 b 351 609 415 608 383 609 b 318 638 329 610 321 616 b 311 714 315 663 312 688 b 341 743 310 737 317 743 b 462 740 381 744 422 745 b 649 737 525 734 587 737 b 661 737 653 736 657 737 b 679 754 670 739 677 745 b 682 773 680 760 681 767 b 684 937 687 828 684 882 b 683 941 684 938 684 939 b 664 961 681 953 677 959 b 626 962 652 962 639 962 b 485 964 579 963 532 962 b 390 966 453 965 422 968 b 337 963 372 965 354 964 z "},"6":{"ha":761,"x_min":0,"x_max":0,"o":"m 404 964 b 324 964 378 964 351 963 b 286 939 305 964 293 956 b 244 837 272 905 257 871 b 92 459 194 711 147 583 b 73 405 85 441 78 423 b 99 181 53 327 57 251 b 276 24 141 110 203 60 b 334 6 294 15 314 8 b 514 40 398 -2 458 5 b 537 53 521 45 529 49 b 664 175 592 80 633 124 b 699 294 686 212 700 251 b 698 355 699 315 699 335 b 668 453 696 390 686 423 b 545 581 637 505 596 547 b 421 636 507 606 467 628 b 406 667 403 639 399 648 b 449 785 419 707 434 746 b 507 938 468 836 488 887 b 492 963 514 956 510 962 b 404 963 463 964 433 963 b 404 964 404 963 404 964 z m 414 392 b 452 353 434 386 448 374 b 455 338 453 348 454 343 b 345 249 466 266 410 230 b 315 275 331 253 320 261 b 314 353 305 301 304 327 b 388 396 327 385 353 394 b 414 392 394 395 405 394 z "},"7":{"ha":644,"x_min":0,"x_max":0,"o":"m 100 958 b 62 921 67 958 62 954 b 62 799 61 880 61 839 b 111 749 63 750 63 750 b 271 748 164 749 218 748 b 309 701 312 747 319 742 b 260 482 291 629 275 555 b 191 139 237 368 215 253 b 169 38 185 105 176 72 b 195 3 164 14 171 4 b 340 6 243 1 291 1 b 376 37 361 8 371 18 b 429 260 394 112 413 185 b 530 709 461 410 492 560 b 580 924 549 780 564 852 b 583 939 581 929 582 934 b 561 964 583 955 576 963 b 511 964 544 965 528 966 b 324 958 448 958 384 960 b 100 958 247 958 174 958 z "},"8":{"ha":763,"x_min":0,"x_max":0,"o":"m 312 948 b 108 744 220 918 141 833 b 104 519 80 669 67 593 b 116 481 110 507 118 494 b 105 459 114 473 109 466 b 64 353 84 427 69 391 b 128 114 52 269 77 182 b 220 36 152 82 183 50 b 368 7 269 19 317 9 b 665 179 495 2 610 63 b 664 445 701 255 716 374 b 656 459 661 449 657 454 b 662 478 655 466 659 472 b 701 630 685 526 698 578 b 571 912 706 731 663 859 b 401 960 521 941 461 959 b 312 948 371 961 341 957 z m 318 628 b 403 716 319 681 354 717 b 481 626 448 715 483 675 b 398 553 480 578 450 552 b 318 628 342 555 318 580 z m 385 397 b 444 389 405 398 425 397 b 478 350 461 381 472 369 b 473 283 484 327 482 305 b 390 236 459 250 427 233 b 320 302 355 239 327 266 b 318 321 318 309 319 317 b 385 397 319 369 340 392 z "},"9":{"ha":761,"x_min":0,"x_max":0,"o":"m 357 3 b 437 3 383 3 410 3 b 474 28 456 2 467 11 b 517 130 488 62 503 96 b 668 508 567 256 614 384 b 689 566 677 527 684 546 b 643 815 710 655 700 739 b 488 941 601 869 549 911 b 302 952 428 971 365 970 b 220 912 272 944 247 926 b 87 774 161 881 119 833 b 62 619 61 725 59 673 b 105 495 65 573 79 532 b 336 332 163 414 237 355 b 354 296 358 326 362 319 b 311 178 340 256 325 217 b 253 28 292 128 272 78 b 269 4 247 11 251 4 b 357 3 298 3 327 3 b 357 3 357 3 357 3 z m 418 581 b 330 582 389 567 359 567 b 313 601 322 586 316 593 b 307 668 305 623 301 645 b 431 710 321 718 389 741 b 451 678 442 702 448 691 b 453 654 452 668 453 658 b 418 581 453 620 445 595 z "},"\u0000":{"ha":0,"x_min":0,"x_max":0,"o":""},"\n":{"ha":0,"x_min":0,"x_max":0,"o":""},"\r":{"ha":0,"x_min":0,"x_max":0,"o":""}," ":{"ha":400,"x_min":0,"x_max":0,"o":""},"!":{"ha":365,"x_min":0,"x_max":0,"o":"m 300 671 b 302 786 299 709 300 748 b 301 954 304 842 301 898 b 270 985 300 980 296 985 b 98 986 213 986 155 986 b 83 985 93 986 88 986 b 63 966 70 983 65 978 b 62 951 62 961 62 956 b 62 600 62 834 61 717 b 69 315 64 505 72 410 b 69 307 69 312 69 310 b 92 282 71 290 76 284 b 115 281 99 281 107 281 b 252 282 160 281 206 281 b 300 329 298 282 300 284 b 300 567 300 408 300 488 b 300 634 300 590 300 612 b 300 671 301 646 300 658 z m 183 176 b 91 176 152 176 122 177 b 62 146 68 176 63 171 b 69 44 60 112 62 78 b 94 22 73 27 76 22 b 273 22 153 21 213 21 b 300 49 294 22 300 28 b 302 145 302 81 302 113 b 270 176 302 169 296 175 b 183 176 241 177 212 176 b 183 176 183 176 183 176 z "},"\"":{"ha":828,"x_min":0,"x_max":0,"o":"m 113 406 b 111 416 110 410 111 413 b 117 483 113 439 114 461 b 115 495 117 487 119 492 b 61 494 98 488 80 486 b 70 382 65 456 67 419 b 62 267 72 344 65 308 b 113 267 80 276 97 270 b 110 294 115 278 112 286 b 121 345 107 313 108 330 b 139 369 127 352 131 361 b 174 266 158 337 166 302 b 203 272 185 268 193 272 b 233 269 213 273 223 269 b 230 276 233 272 232 274 b 207 314 220 287 214 301 b 167 410 192 345 181 378 b 179 427 170 416 174 421 b 221 479 193 444 207 461 b 229 494 225 483 229 487 b 199 487 218 493 209 486 b 165 494 188 487 178 492 b 113 406 156 459 139 430 z m 315 282 b 383 265 338 281 360 275 b 378 296 382 277 379 286 b 379 327 377 306 381 315 b 301 321 353 310 327 309 b 297 367 299 336 295 351 b 323 366 306 369 314 367 b 347 360 331 365 337 358 b 343 391 345 371 344 381 b 343 423 341 401 346 411 b 297 409 329 412 315 406 b 301 446 297 423 299 435 b 377 439 327 457 351 449 b 378 497 372 460 373 478 b 243 495 333 486 289 483 b 245 264 264 418 264 342 b 315 282 269 277 291 282 z m 437 272 b 473 266 449 272 460 267 b 462 354 464 296 460 325 b 488 358 471 357 480 358 b 508 327 498 349 504 338 b 524 272 515 309 521 291 b 528 264 525 269 525 265 b 530 264 529 264 530 264 b 533 265 531 264 532 265 b 572 272 545 274 558 276 b 583 273 575 271 579 270 b 538 373 558 302 541 334 b 560 416 551 385 557 399 b 502 493 566 455 542 489 b 476 494 493 494 485 494 b 415 496 455 492 435 493 b 404 495 411 497 407 498 b 410 468 406 486 409 477 b 417 326 417 421 421 374 b 403 270 416 307 414 287 b 403 266 403 270 403 269 b 437 272 415 266 426 271 z m 466 439 b 468 449 467 442 467 446 b 509 436 482 454 502 448 b 503 407 516 425 514 414 b 464 408 488 398 478 398 b 466 439 465 419 465 429 z m 767 267 b 757 371 758 301 757 336 b 760 477 757 406 759 442 b 759 499 760 484 761 491 b 708 498 742 487 725 490 b 710 454 704 482 709 468 b 712 409 712 439 713 424 b 711 365 712 395 715 381 b 702 379 707 371 705 375 b 662 453 687 402 674 427 b 641 495 656 467 649 482 b 618 491 633 493 626 491 b 597 496 611 490 605 497 b 600 459 598 483 599 471 b 604 381 601 433 603 407 b 599 273 606 345 607 309 b 600 265 598 271 597 268 b 652 267 616 269 634 275 b 650 278 653 272 651 275 b 645 303 648 286 645 294 b 644 396 645 334 643 365 b 647 404 645 398 643 402 b 650 400 648 402 649 401 b 695 321 665 373 680 347 b 720 265 704 303 716 286 b 722 262 720 264 721 264 b 766 263 736 268 751 264 b 767 267 766 266 767 266 z m 248 228 b 244 228 247 228 245 228 b 205 225 232 219 219 220 b 163 229 191 229 177 232 b 72 155 119 222 88 197 b 63 106 66 139 64 123 b 137 11 62 59 99 21 b 204 10 160 5 182 4 b 253 5 221 15 238 16 b 257 4 254 4 255 4 b 252 33 255 14 253 24 b 251 63 251 43 251 53 b 253 93 250 73 256 82 b 242 82 247 91 245 86 b 168 56 226 59 196 48 b 121 117 142 64 122 89 b 167 177 121 146 139 170 b 233 161 191 184 214 178 b 243 151 237 158 240 154 b 252 151 246 149 248 147 b 246 188 248 163 246 175 b 252 228 246 201 252 214 b 248 228 249 228 249 229 z m 336 232 b 307 224 325 231 317 225 b 277 226 297 224 287 228 b 284 171 279 207 282 189 b 288 115 285 152 286 134 b 287 60 289 97 287 78 b 283 3 287 41 284 23 b 342 8 304 7 323 6 b 401 2 361 11 380 8 b 397 58 392 22 394 39 b 334 55 375 51 355 48 b 336 232 322 114 332 173 z m 413 200 b 420 76 415 159 417 117 b 466 9 422 45 437 22 b 493 1 475 5 484 3 b 568 48 524 -2 558 13 b 574 89 571 62 574 75 b 572 159 574 112 572 136 b 579 226 571 181 570 204 b 578 234 580 228 582 231 b 547 227 568 231 558 226 b 517 233 536 227 526 231 b 516 225 515 229 515 227 b 525 197 521 216 523 206 b 529 163 526 185 528 174 b 525 87 532 138 531 112 b 512 60 522 78 519 68 b 477 57 503 49 489 47 b 465 75 471 62 467 68 b 460 109 462 86 460 97 b 472 224 461 147 463 186 b 470 233 472 227 474 230 b 408 233 450 227 429 224 b 413 200 411 222 412 211 z m 742 171 b 706 234 751 202 735 229 b 685 234 699 235 692 235 b 613 232 661 231 637 227 b 607 229 611 232 609 232 b 611 203 610 222 610 212 b 613 175 612 194 612 184 b 608 52 617 134 616 93 b 599 15 606 40 602 27 b 599 1 598 10 595 5 b 606 1 602 -1 604 0 b 644 8 618 7 631 9 b 690 8 659 8 675 8 b 761 63 727 8 751 26 b 734 141 770 98 763 123 b 729 146 732 142 730 143 b 742 171 734 154 739 162 z m 655 108 b 705 109 672 115 689 115 b 710 59 723 103 725 72 b 659 49 694 46 677 45 b 655 108 656 69 653 88 z m 660 183 b 694 178 675 193 685 191 b 678 158 693 164 689 160 b 658 157 672 156 665 155 b 660 183 657 167 658 175 z "},"#":{"ha":743,"x_min":0,"x_max":0,"o":"m 660 341 b 584 344 634 342 609 343 b 589 442 586 376 587 409 b 654 440 611 442 633 441 b 680 465 673 439 679 445 b 681 553 681 494 681 523 b 680 581 681 562 681 572 b 660 601 679 597 675 600 b 601 603 640 602 621 602 b 604 659 602 621 603 640 b 605 745 604 685 605 715 b 584 773 606 768 603 771 b 540 777 570 775 555 776 b 473 781 518 778 495 780 b 440 746 444 782 442 779 b 435 659 439 717 438 688 b 430 606 433 641 431 624 b 341 607 400 606 370 607 b 344 670 342 627 343 648 b 346 756 345 695 345 725 b 324 784 346 779 343 782 b 280 787 310 786 295 787 b 213 791 258 789 236 791 b 180 757 184 793 182 790 b 175 669 179 728 178 698 b 170 612 173 650 171 631 b 154 612 165 612 160 612 b 86 610 134 612 110 611 b 64 587 68 609 65 606 b 63 544 64 573 63 558 b 62 476 62 521 62 499 b 90 445 62 447 64 445 b 160 443 114 445 137 446 b 160 443 160 443 160 443 b 159 419 159 435 159 427 b 157 352 158 397 158 375 b 154 352 156 352 155 352 b 86 350 134 352 110 351 b 64 327 67 349 65 346 b 62 283 63 313 63 298 b 61 216 62 261 61 239 b 90 185 61 187 64 185 b 153 184 111 185 132 185 b 144 49 151 139 148 94 b 168 16 142 26 148 17 b 255 11 197 13 226 12 b 284 11 265 10 274 10 b 305 35 300 12 303 17 b 315 179 308 83 312 131 b 334 178 321 179 328 179 b 358 178 342 178 350 178 b 413 180 377 179 395 179 b 404 38 411 132 408 85 b 428 5 402 15 408 6 b 515 0 457 3 486 1 b 544 0 525 -1 534 -1 b 565 25 559 2 563 6 b 576 182 568 77 572 130 b 654 180 602 182 628 181 b 679 205 672 178 679 185 b 681 293 680 234 680 263 b 680 321 681 302 681 312 b 660 341 678 337 674 340 z m 420 439 b 419 409 419 429 419 419 b 418 346 418 388 418 367 b 324 347 386 346 355 347 b 328 439 325 377 327 408 b 335 438 331 439 333 439 b 359 439 343 438 351 438 b 420 440 380 439 400 440 b 420 439 420 440 420 439 z "},"$":{"ha":839,"x_min":0,"x_max":0,"o":"m 727 231 b 677 427 734 296 713 373 b 537 553 642 481 589 518 b 514 594 522 563 514 576 b 514 651 515 613 513 632 b 521 678 514 661 510 673 b 548 668 532 683 540 674 b 603 626 567 654 584 640 b 633 627 615 617 622 617 b 680 672 649 641 665 657 b 769 761 710 702 740 731 b 770 790 781 773 780 779 b 753 806 764 796 759 801 b 639 902 715 838 677 870 b 536 966 608 928 573 949 b 493 1024 498 983 498 984 b 492 1043 493 1031 492 1037 b 443 1084 492 1087 484 1087 b 344 1077 410 1081 378 1078 b 333 1076 341 1077 337 1077 b 314 1056 321 1074 315 1068 b 318 1003 312 1038 316 1021 b 291 957 322 973 319 968 b 98 806 216 930 135 880 b 92 627 70 751 70 684 b 319 412 131 528 235 469 b 340 379 331 404 340 394 b 341 299 341 352 342 325 b 320 288 341 285 331 281 b 289 310 310 295 299 302 b 220 364 266 328 244 347 b 178 361 200 379 194 379 b 74 249 143 324 108 287 b 77 201 56 228 57 220 b 235 69 125 152 177 107 b 313 31 259 53 285 40 b 321 29 316 30 318 29 b 355 -13 345 25 354 10 b 359 -43 356 -23 358 -33 b 379 -68 360 -56 366 -65 b 530 -71 429 -83 479 -80 b 552 -42 549 -68 552 -63 b 552 21 553 -22 550 1 b 573 45 554 39 557 39 b 666 97 608 56 639 71 b 705 153 682 114 695 133 b 727 231 717 177 724 204 z m 321 657 b 290 709 303 659 288 693 b 342 735 293 727 341 768 b 340 709 342 726 341 717 b 341 709 341 709 341 709 b 321 657 340 694 343 654 z m 537 316 b 557 279 549 309 557 292 b 549 254 557 270 555 260 b 522 259 538 242 524 244 b 515 310 520 275 517 292 b 537 316 513 324 531 320 z "},"%":{"ha":900,"x_min":0,"x_max":0,"o":"m 823 797 b 828 841 842 822 842 828 b 795 869 818 851 806 860 b 743 911 778 883 760 898 b 687 891 720 929 715 927 b 611 797 662 860 638 827 b 420 561 544 721 484 639 b 394 528 411 550 402 539 b 78 124 290 393 188 255 b 71 74 58 100 56 87 b 140 19 93 55 116 37 b 163 4 147 13 155 8 b 201 19 178 -3 184 -1 b 369 226 257 88 314 156 b 612 533 451 328 531 431 b 644 572 622 547 633 560 b 752 703 681 612 713 655 b 823 797 773 730 798 763 z m 144 605 b 315 718 225 575 309 634 b 302 804 317 748 309 776 b 232 866 293 841 267 860 b 125 851 195 872 160 870 b 68 779 95 834 76 812 b 62 709 61 755 60 731 b 144 605 68 663 94 623 z m 637 83 b 808 196 718 54 802 112 b 795 283 810 226 802 254 b 725 345 786 319 760 339 b 618 329 689 351 653 348 b 561 257 588 313 569 290 b 556 187 555 234 553 210 b 637 83 562 142 587 101 z "},"&":{"ha":940,"x_min":0,"x_max":0,"o":"m 158 525 b 135 501 151 517 142 510 b 108 465 126 490 116 478 b 66 355 87 431 73 394 b 91 162 54 290 63 222 b 161 71 107 127 130 95 b 310 21 201 40 260 25 b 534 88 388 16 470 44 b 557 101 542 93 549 98 b 604 68 581 109 590 82 b 699 34 628 43 664 33 b 800 54 733 34 767 44 b 868 74 820 60 850 63 b 869 113 884 84 879 98 b 766 225 842 154 799 189 b 756 237 763 229 759 233 b 791 288 743 258 785 271 b 724 404 806 328 746 377 b 684 438 712 417 700 431 b 665 439 678 441 670 441 b 626 426 647 433 647 418 b 607 459 613 431 599 444 b 615 468 608 463 612 466 b 712 689 673 516 710 615 b 653 875 713 755 693 822 b 443 986 604 940 525 983 b 320 969 402 988 360 979 b 215 923 282 959 245 947 b 136 780 171 889 148 834 b 133 625 125 729 122 676 b 161 553 139 599 148 575 b 166 537 166 545 168 541 b 158 525 166 534 163 530 z m 374 730 b 454 741 395 749 429 755 b 481 647 489 724 500 679 b 422 614 467 622 453 600 b 394 633 412 618 403 626 b 367 665 384 642 373 652 b 361 683 364 670 362 676 b 374 730 358 700 361 719 z m 269 272 b 273 351 254 298 255 326 b 330 385 287 369 304 393 b 366 361 344 381 356 371 b 400 330 377 351 388 340 b 434 291 412 319 428 307 b 429 263 437 282 436 270 b 418 256 426 260 422 258 b 396 246 411 253 404 249 b 345 233 380 238 362 233 b 269 272 315 232 287 243 z "},"'":{"ha":828,"x_min":0,"x_max":0,"o":"m 113 406 b 111 416 110 410 111 413 b 117 483 113 439 114 461 b 115 495 117 487 119 492 b 61 494 98 488 80 486 b 70 382 65 456 67 419 b 62 267 72 344 65 308 b 113 267 80 276 97 270 b 110 294 115 278 112 286 b 121 345 107 313 108 330 b 139 369 127 352 131 361 b 174 266 158 337 166 302 b 203 272 185 268 193 272 b 233 269 213 273 223 269 b 230 276 233 272 232 274 b 207 314 220 287 214 301 b 167 410 192 345 181 378 b 179 427 170 416 174 421 b 221 479 193 444 207 461 b 229 494 225 483 229 487 b 199 487 218 493 209 486 b 165 494 188 487 178 492 b 113 406 156 459 139 430 z m 315 282 b 383 265 338 281 360 275 b 378 296 382 277 379 286 b 379 327 377 306 381 315 b 301 321 353 310 327 309 b 297 367 299 336 295 351 b 323 366 306 369 314 367 b 347 360 331 365 337 358 b 343 391 345 371 344 381 b 343 423 341 401 346 411 b 297 409 329 412 315 406 b 301 446 297 423 299 435 b 377 439 327 457 351 449 b 378 497 372 460 373 478 b 243 495 333 486 289 483 b 245 264 264 418 264 342 b 315 282 269 277 291 282 z m 437 272 b 473 266 449 272 460 267 b 462 354 464 296 460 325 b 488 358 471 357 480 358 b 508 327 498 349 504 338 b 524 272 515 309 521 291 b 528 264 525 269 525 265 b 530 264 529 264 530 264 b 533 265 531 264 532 265 b 572 272 545 274 558 276 b 583 273 575 271 579 270 b 538 373 558 302 541 334 b 560 416 551 385 557 399 b 502 493 566 455 542 489 b 476 494 493 494 485 494 b 415 496 455 492 435 493 b 404 495 411 497 407 498 b 410 468 406 486 409 477 b 417 326 417 421 421 374 b 403 270 416 307 414 287 b 403 266 403 270 403 269 b 437 272 415 266 426 271 z m 466 439 b 468 449 467 442 467 446 b 509 436 482 454 502 448 b 503 407 516 425 514 414 b 464 408 488 398 478 398 b 466 439 465 419 465 429 z m 767 267 b 757 371 758 301 757 336 b 760 477 757 406 759 442 b 759 499 760 484 761 491 b 708 498 742 487 725 490 b 710 454 704 482 709 468 b 712 409 712 439 713 424 b 711 365 712 395 715 381 b 702 379 707 371 705 375 b 662 453 687 402 674 427 b 641 495 656 467 649 482 b 618 491 633 493 626 491 b 597 496 611 490 605 497 b 599 459 598 483 599 471 b 604 381 601 433 603 407 b 599 273 606 345 607 309 b 600 265 598 271 597 268 b 652 267 616 269 634 275 b 650 278 653 272 651 275 b 645 303 648 286 645 294 b 644 396 645 334 643 365 b 647 404 645 398 643 402 b 650 400 648 402 649 401 b 695 321 665 373 680 347 b 720 265 704 303 716 286 b 722 262 720 264 721 264 b 766 263 736 268 751 264 b 767 267 766 266 767 266 z m 248 228 b 244 228 247 228 245 228 b 205 225 232 219 219 220 b 163 229 191 229 177 232 b 72 155 119 222 88 197 b 63 106 66 139 64 123 b 137 11 62 59 99 21 b 204 10 160 5 182 4 b 253 5 221 15 238 16 b 257 4 254 4 255 4 b 252 33 255 14 253 24 b 251 63 251 43 251 53 b 253 93 250 73 256 82 b 242 82 247 91 245 86 b 168 56 226 59 196 48 b 121 117 142 64 122 89 b 167 177 121 146 139 170 b 233 161 191 184 214 178 b 243 151 237 158 240 154 b 252 151 246 149 248 147 b 246 188 248 163 246 175 b 252 228 246 201 252 214 b 248 228 249 228 249 229 z m 336 232 b 307 224 325 231 317 225 b 277 226 297 224 287 228 b 284 171 279 207 282 189 b 288 115 285 152 286 134 b 287 60 289 97 287 78 b 283 3 287 41 284 23 b 342 8 304 7 323 6 b 401 2 361 11 380 8 b 397 58 392 22 394 39 b 334 55 375 51 355 48 b 336 232 322 114 332 173 z m 413 200 b 420 76 415 159 417 117 b 466 9 422 45 437 22 b 493 1 475 5 484 3 b 568 48 524 -2 558 13 b 574 89 571 62 574 75 b 572 159 574 112 572 136 b 579 226 571 181 570 204 b 578 234 580 228 582 231 b 547 227 568 231 558 226 b 517 233 536 227 526 231 b 516 225 515 229 515 227 b 525 197 521 216 523 206 b 529 163 526 185 528 174 b 525 87 532 138 531 112 b 512 60 522 78 519 68 b 477 57 503 49 489 47 b 465 75 471 62 467 68 b 461 109 462 86 460 97 b 472 224 461 147 463 186 b 470 233 472 227 474 230 b 408 233 450 227 429 224 b 413 200 411 222 412 211 z m 742 171 b 706 234 751 202 735 229 b 685 234 699 235 692 235 b 613 232 661 231 637 227 b 607 229 611 232 609 232 b 611 203 611 222 610 212 b 613 175 612 194 612 184 b 608 52 617 134 616 93 b 599 15 606 40 602 27 b 599 1 598 10 595 5 b 606 1 602 -1 604 0 b 644 8 618 7 631 9 b 690 8 659 8 675 8 b 761 63 727 8 751 26 b 734 141 770 98 763 123 b 729 146 732 142 730 143 b 742 171 734 154 739 162 z m 655 108 b 705 109 672 115 689 115 b 710 59 723 103 725 72 b 659 49 694 46 677 45 b 655 108 656 69 653 88 z m 659 183 b 694 178 675 193 685 191 b 678 158 693 164 689 160 b 658 157 672 156 665 155 b 659 183 657 167 658 175 z "},"(":{"ha":381,"x_min":0,"x_max":0,"o":"m 205 493 b 277 941 199 647 223 798 b 310 1020 287 968 298 994 b 319 1052 315 1030 320 1041 b 266 1073 316 1077 284 1073 b 151 1020 208 1075 180 1076 b 106 895 130 981 119 937 b 103 235 39 689 55 445 b 159 51 117 173 135 110 b 245 0 178 6 200 2 b 296 83 320 -3 322 17 b 205 493 243 212 211 353 z "},")":{"ha":379,"x_min":0,"x_max":0,"o":"m 276 835 b 220 1019 262 897 245 960 b 135 1070 201 1064 180 1068 b 84 987 60 1073 58 1053 b 174 579 136 858 169 718 b 102 132 180 426 156 275 b 70 54 93 106 82 80 b 61 22 65 44 60 33 b 114 1 64 -3 96 1 b 229 54 172 -1 199 -2 b 273 178 249 93 260 136 b 276 835 340 384 324 627 z "},"*":{"ha":557,"x_min":0,"x_max":0,"o":"m 494 753 b 468 772 489 765 477 767 b 444 781 460 775 452 778 b 403 793 430 784 417 789 b 441 846 416 811 429 829 b 446 860 444 851 448 855 b 416 895 440 875 431 888 b 385 890 405 901 395 894 b 362 880 377 887 369 884 b 331 863 352 874 341 868 b 310 959 324 895 317 927 b 303 971 309 964 308 969 b 257 973 289 976 273 979 b 240 947 246 969 244 956 b 232 922 237 939 234 930 b 221 877 229 907 225 892 b 153 926 198 894 176 910 b 139 930 149 929 145 932 b 104 901 125 924 112 916 b 110 869 99 889 106 879 b 120 846 113 861 116 853 b 141 807 128 833 134 820 b 79 794 121 802 100 798 b 67 786 74 792 69 792 b 64 740 61 772 58 756 b 91 723 69 729 81 727 b 115 715 99 720 107 717 b 145 708 125 713 135 710 b 95 631 128 682 112 656 b 91 617 92 627 89 622 b 122 583 98 603 107 590 b 153 590 134 578 143 585 b 176 601 161 593 169 597 b 208 620 186 608 197 614 b 218 561 211 601 215 581 b 225 548 219 556 219 551 b 270 544 239 542 254 539 b 288 570 282 548 284 560 b 298 594 292 578 295 586 b 306 621 300 603 303 612 b 369 579 327 607 348 593 b 383 576 373 576 378 573 b 417 606 397 582 410 591 b 410 637 422 618 414 628 b 399 660 406 645 403 653 b 384 686 393 668 389 677 b 477 701 415 691 446 696 b 489 708 482 702 487 702 b 494 753 495 722 499 738 z "},"+":{"ha":706,"x_min":0,"x_max":0,"o":"m 643 662 b 616 694 643 692 641 694 b 551 695 594 694 572 693 b 451 697 517 698 484 697 b 451 697 451 697 451 697 b 452 725 450 707 450 716 b 455 816 456 754 454 783 b 451 880 454 835 453 858 b 428 901 450 898 447 900 b 382 902 412 901 397 901 b 312 902 359 902 335 902 b 280 875 282 901 280 899 b 279 809 280 853 281 831 b 277 693 276 771 277 732 b 85 692 213 691 149 689 b 61 666 68 693 62 686 b 61 574 61 635 61 605 b 63 545 61 564 62 555 b 82 525 64 529 68 525 b 226 522 130 523 178 522 b 281 522 245 522 263 522 b 282 344 284 463 285 403 b 309 320 281 327 288 320 b 400 320 339 319 369 320 b 429 321 410 320 420 320 b 449 340 445 323 449 326 b 452 485 451 389 452 437 b 452 524 452 498 452 511 b 466 523 457 524 461 523 b 558 519 495 518 525 520 b 622 523 577 520 599 521 b 642 547 639 524 642 527 b 643 592 643 562 643 577 b 643 662 643 615 644 639 z "},",":{"ha":333,"x_min":0,"x_max":0,"o":"m 251 166 b 170 198 224 177 197 187 b 136 201 159 202 147 201 b 101 172 115 200 108 194 b 95 146 99 164 96 155 b 62 -37 84 85 73 24 b 64 -55 61 -44 60 -50 b 110 -80 77 -69 92 -80 b 139 -58 124 -81 131 -67 b 158 -34 146 -50 152 -42 b 235 75 182 3 208 40 b 262 116 245 88 254 102 b 271 138 266 124 269 133 b 251 166 272 155 262 162 z "},"-":{"ha":706,"x_min":0,"x_max":0,"o":"m 643 617 b 616 649 643 647 641 649 b 551 650 594 649 572 648 b 386 653 496 655 441 650 b 363 652 378 653 371 652 b 85 647 270 648 178 642 b 61 621 68 648 62 641 b 61 529 61 590 61 560 b 63 500 61 520 62 510 b 82 480 64 484 68 480 b 226 477 130 479 178 477 b 439 479 297 477 368 478 b 466 478 448 479 457 479 b 558 475 495 473 525 475 b 622 478 577 476 599 476 b 642 502 639 479 641 482 b 643 547 643 517 643 532 b 643 617 643 571 644 594 z "},".":{"ha":376,"x_min":0,"x_max":0,"o":"m 144 23 b 315 136 225 -7 309 52 b 302 222 317 166 309 194 b 232 284 293 259 267 278 b 125 269 195 290 160 288 b 68 197 95 252 76 230 b 62 127 61 173 60 149 b 144 23 68 81 94 41 z "},"/":{"ha":900,"x_min":0,"x_max":0,"o":"m 823 839 b 828 883 842 865 842 870 b 795 912 818 893 806 902 b 743 954 778 926 760 940 b 687 934 720 971 715 969 b 611 840 662 902 638 870 b 420 604 544 764 484 681 b 394 571 411 593 402 582 b 78 167 290 435 188 298 b 71 117 58 142 56 130 b 140 62 93 98 116 80 b 163 46 147 56 155 50 b 200 61 178 39 184 42 b 369 268 257 130 314 199 b 612 576 451 370 531 473 b 644 614 622 589 633 602 b 752 745 681 654 713 697 b 823 839 773 773 798 806 z "},":":{"ha":378,"x_min":0,"x_max":0,"o":"m 144 513 b 315 626 225 484 309 542 b 302 712 317 656 309 684 b 232 774 293 749 267 769 b 125 759 195 780 160 778 b 68 687 95 742 76 720 b 62 617 61 664 60 640 b 144 513 68 571 94 531 z m 232 413 b 125 398 195 419 160 417 b 68 326 95 381 76 359 b 62 256 61 303 60 279 b 144 152 68 210 94 170 b 315 265 225 123 309 181 b 302 351 317 295 309 323 b 232 413 293 388 267 408 z "},";":{"ha":378,"x_min":0,"x_max":0,"o":"m 274 354 b 192 385 246 365 219 375 b 158 389 181 390 169 389 b 123 360 137 387 130 382 b 117 334 121 352 118 343 b 84 151 106 273 95 212 b 87 133 83 144 82 138 b 132 107 99 119 114 108 b 161 130 146 107 153 120 b 180 154 168 138 174 145 b 257 263 204 191 230 227 b 284 304 267 275 276 290 b 293 326 288 312 291 320 b 274 354 294 343 284 350 z m 302 710 b 232 772 293 747 267 767 b 125 757 195 778 160 776 b 68 685 95 740 76 718 b 62 615 61 662 60 638 b 144 511 68 569 94 529 b 315 624 225 482 309 540 b 302 710 317 654 309 682 z "},"<":{"ha":828,"x_min":0,"x_max":0,"o":"m 113 406 b 111 416 110 410 111 413 b 117 483 113 439 114 461 b 115 495 117 487 119 492 b 61 494 98 488 80 486 b 70 382 65 456 67 419 b 62 267 72 344 65 308 b 113 267 80 276 96 270 b 110 294 115 278 112 286 b 121 345 107 313 108 330 b 139 369 127 352 131 361 b 174 266 158 337 166 302 b 203 272 185 268 193 272 b 233 269 213 273 223 269 b 230 276 233 272 232 274 b 207 314 220 287 214 301 b 167 410 192 345 181 378 b 179 427 170 416 174 421 b 221 479 193 444 207 461 b 229 494 225 483 229 487 b 199 487 218 493 209 486 b 165 494 188 487 178 492 b 113 406 156 459 139 430 z m 315 282 b 383 265 338 281 360 275 b 378 296 382 277 379 286 b 379 327 377 306 381 315 b 301 321 353 310 327 309 b 297 367 299 336 295 351 b 323 366 306 369 314 367 b 347 360 331 365 337 358 b 343 391 345 371 344 381 b 343 423 341 401 346 411 b 297 409 329 412 315 406 b 301 446 297 423 299 435 b 377 439 327 457 351 449 b 378 497 372 460 373 478 b 243 495 333 486 289 483 b 245 264 264 418 264 342 b 315 282 269 277 291 282 z m 437 272 b 473 266 449 272 460 267 b 462 354 464 296 460 325 b 488 358 471 357 480 358 b 508 327 498 349 504 338 b 524 272 515 309 521 291 b 528 264 525 269 525 265 b 530 264 529 264 529 264 b 533 265 531 264 532 265 b 572 272 545 274 558 276 b 583 273 575 271 579 270 b 538 373 558 302 541 334 b 560 416 551 385 557 399 b 502 493 566 455 542 489 b 476 494 493 494 485 494 b 415 496 455 492 435 493 b 404 495 411 497 407 498 b 410 468 406 486 409 477 b 417 326 417 421 421 374 b 403 270 416 307 414 287 b 403 266 403 270 403 269 b 437 272 415 266 426 271 z m 466 439 b 468 449 467 442 467 446 b 509 436 482 454 502 448 b 503 407 516 425 514 414 b 464 408 488 398 478 398 b 466 439 465 419 465 429 z m 767 267 b 757 371 758 301 757 336 b 760 477 757 406 759 442 b 759 499 760 484 761 491 b 708 498 742 487 725 490 b 710 454 704 482 709 468 b 712 409 712 439 713 424 b 711 365 712 395 714 381 b 702 379 707 371 705 375 b 662 453 687 402 674 427 b 641 495 655 467 649 482 b 618 491 633 493 626 491 b 597 496 611 490 605 497 b 599 459 598 483 599 471 b 604 381 601 433 603 407 b 599 273 606 345 607 309 b 600 265 598 271 597 268 b 652 267 616 269 634 275 b 650 278 653 272 651 275 b 645 303 648 286 645 294 b 644 396 645 334 643 365 b 647 404 645 398 643 402 b 650 400 648 402 649 401 b 695 321 665 373 680 347 b 720 265 704 303 716 286 b 722 262 720 264 721 264 b 766 263 736 268 751 264 b 767 267 766 266 767 266 z m 248 228 b 244 228 247 228 245 228 b 205 225 232 219 219 220 b 163 229 191 229 177 232 b 72 155 119 222 88 197 b 63 106 66 139 64 123 b 137 11 62 59 99 21 b 204 10 160 5 182 4 b 253 5 221 15 238 16 b 257 4 254 4 255 4 b 252 33 255 14 253 24 b 251 63 251 43 251 53 b 253 93 250 73 256 82 b 242 82 247 91 245 86 b 168 56 226 59 196 48 b 121 117 142 64 122 89 b 167 177 121 146 139 170 b 233 161 191 184 214 178 b 243 151 237 158 240 154 b 252 151 246 149 248 147 b 246 188 248 163 246 175 b 252 228 246 201 252 214 b 248 228 249 228 249 229 z m 336 232 b 307 224 325 231 317 225 b 277 226 297 224 287 228 b 284 171 279 207 282 189 b 288 115 285 152 286 134 b 287 60 289 97 287 78 b 283 3 287 41 283 23 b 342 8 304 7 323 6 b 401 2 361 11 380 8 b 397 58 392 22 394 39 b 334 55 375 51 355 48 b 336 232 322 114 332 173 z m 413 200 b 420 76 415 159 417 117 b 466 9 422 45 437 22 b 493 1 475 5 484 3 b 568 48 524 -2 558 13 b 574 89 571 62 574 75 b 572 159 574 112 572 136 b 579 226 571 181 570 204 b 578 234 580 228 582 231 b 547 227 568 231 558 226 b 517 233 536 227 526 231 b 516 225 515 229 515 227 b 525 197 521 216 523 206 b 529 163 526 185 528 174 b 525 87 532 138 531 112 b 512 60 522 78 519 68 b 477 57 503 49 489 47 b 465 75 471 62 467 68 b 461 109 462 86 460 97 b 472 224 461 147 463 186 b 470 233 472 227 474 230 b 408 233 450 227 429 224 b 413 200 411 222 412 211 z m 742 171 b 706 234 751 202 735 229 b 685 234 699 235 692 235 b 613 232 661 231 637 227 b 607 229 611 232 609 232 b 611 203 611 222 610 212 b 613 175 612 194 612 184 b 608 52 617 134 616 93 b 599 15 606 40 602 27 b 599 1 598 10 595 5 b 606 1 602 -1 604 0 b 644 8 618 7 631 9 b 690 8 659 8 675 8 b 761 63 727 8 751 26 b 734 141 770 98 763 123 b 729 146 732 142 730 143 b 742 171 734 154 739 162 z m 655 108 b 705 109 672 115 689 115 b 710 59 723 103 725 72 b 659 49 694 46 677 45 b 655 108 656 69 653 88 z m 659 183 b 694 178 675 193 685 191 b 678 158 693 164 689 160 b 658 157 672 156 665 155 b 659 183 657 167 658 175 z "},"=":{"ha":706,"x_min":0,"x_max":0,"o":"m 63 553 b 82 533 65 537 68 533 b 226 530 130 532 178 530 b 439 532 297 530 368 531 b 466 531 448 532 457 532 b 558 528 495 526 525 528 b 622 531 577 529 599 530 b 642 555 639 532 642 535 b 643 601 643 570 643 585 b 643 670 643 624 644 647 b 616 702 643 700 641 703 b 551 703 594 702 572 701 b 386 706 496 708 441 704 b 363 705 378 706 371 706 b 85 700 270 702 178 696 b 61 674 68 701 62 694 b 61 583 61 643 61 613 b 63 553 61 573 62 563 z m 616 440 b 551 441 594 440 572 439 b 386 444 496 446 441 441 b 363 443 378 444 371 444 b 85 438 270 440 178 433 b 61 412 68 439 62 432 b 61 321 61 381 61 351 b 63 291 61 311 62 301 b 82 271 65 275 68 271 b 226 268 130 270 178 268 b 439 270 297 268 368 269 b 466 269 448 270 457 270 b 558 266 495 264 525 266 b 622 269 577 267 599 268 b 642 293 639 270 642 273 b 643 338 643 308 643 323 b 643 408 643 362 644 385 b 616 440 643 438 641 440 z "},">":{"ha":828,"x_min":0,"x_max":0,"o":"m 113 406 b 111 416 110 410 111 413 b 117 483 113 439 114 461 b 115 495 117 487 119 492 b 61 494 98 488 80 486 b 70 382 65 456 67 419 b 62 267 72 344 65 308 b 113 267 80 276 96 270 b 110 294 115 278 112 286 b 121 345 107 313 108 330 b 139 369 127 352 131 361 b 174 266 158 337 166 302 b 203 272 185 268 193 272 b 233 269 213 273 223 269 b 230 276 233 272 232 274 b 207 314 220 287 214 301 b 167 410 192 345 181 378 b 179 427 170 416 174 421 b 221 479 193 444 207 461 b 229 494 225 483 229 487 b 199 487 218 493 209 486 b 165 494 188 487 178 492 b 113 406 156 459 139 430 z m 315 282 b 383 265 338 281 360 275 b 378 296 382 277 379 286 b 379 327 377 306 381 315 b 301 321 353 310 327 309 b 297 367 299 336 295 351 b 323 366 306 369 314 367 b 347 360 331 365 337 358 b 343 391 345 371 344 381 b 343 423 341 401 346 411 b 297 409 329 412 315 406 b 301 446 297 423 299 435 b 377 439 327 457 351 449 b 378 497 372 460 373 478 b 243 495 333 486 289 483 b 245 264 264 418 264 342 b 315 282 269 277 291 282 z m 437 272 b 473 266 449 272 460 267 b 462 354 464 296 460 325 b 488 358 471 357 480 358 b 508 327 498 349 504 338 b 524 272 515 309 521 291 b 528 264 525 269 525 265 b 530 264 529 264 530 264 b 533 265 531 264 532 265 b 572 272 545 274 558 276 b 583 273 575 271 579 270 b 538 373 558 302 541 334 b 560 416 551 385 557 399 b 502 493 566 455 542 489 b 476 494 493 494 485 494 b 415 496 455 492 435 493 b 404 495 411 497 407 498 b 410 468 406 486 409 477 b 417 326 417 421 421 374 b 403 270 416 307 414 287 b 403 266 403 270 403 269 b 437 272 415 266 426 271 z m 466 439 b 468 449 467 442 467 446 b 509 436 482 454 502 448 b 503 407 516 425 514 414 b 464 408 488 398 478 398 b 466 439 465 419 465 429 z m 767 267 b 757 371 758 301 757 336 b 760 477 757 406 759 442 b 759 499 760 484 761 491 b 708 498 742 487 725 490 b 710 454 704 482 709 468 b 712 409 712 439 713 424 b 711 365 712 395 715 381 b 702 379 707 371 705 375 b 662 453 687 402 674 427 b 641 495 656 467 649 482 b 618 491 633 493 626 491 b 597 496 611 490 605 497 b 599 459 598 483 599 471 b 604 381 601 433 603 407 b 599 273 606 345 607 309 b 600 265 598 271 597 268 b 652 267 616 269 634 275 b 650 278 653 272 651 275 b 645 303 648 286 645 294 b 644 396 645 334 643 365 b 647 404 645 398 643 402 b 650 400 648 402 649 401 b 695 321 665 373 680 347 b 720 265 704 303 716 286 b 722 262 720 264 721 264 b 766 263 736 268 751 264 b 767 267 766 266 767 266 z m 248 228 b 244 228 247 228 245 228 b 205 225 232 219 219 220 b 163 229 191 229 177 232 b 72 155 119 222 88 197 b 63 106 66 139 64 123 b 137 11 62 59 99 21 b 204 10 160 5 182 4 b 253 5 221 15 238 16 b 257 4 254 4 255 4 b 252 33 255 14 253 24 b 251 63 251 43 251 53 b 253 93 250 73 256 82 b 242 82 247 91 245 86 b 168 56 226 59 196 48 b 121 117 142 64 122 89 b 167 177 121 146 139 170 b 233 161 191 184 214 178 b 243 151 237 158 240 154 b 252 151 246 149 248 147 b 246 188 248 163 246 175 b 252 228 246 201 252 214 b 248 228 249 228 249 229 z m 336 232 b 307 224 325 231 317 225 b 277 226 297 224 287 228 b 284 171 279 207 282 189 b 288 115 285 152 286 134 b 287 60 289 97 287 78 b 283 3 287 41 284 23 b 342 8 304 7 323 6 b 401 2 361 11 380 8 b 397 58 392 22 394 39 b 334 55 375 51 355 48 b 336 232 322 114 332 173 z m 413 200 b 420 76 415 159 417 117 b 466 9 422 45 437 22 b 493 1 475 5 484 3 b 568 48 524 -2 558 13 b 574 89 571 62 574 75 b 572 159 574 112 572 136 b 579 226 571 181 570 204 b 578 234 580 228 582 231 b 547 227 568 231 558 226 b 517 233 536 227 526 231 b 516 225 515 229 515 227 b 525 197 521 216 523 206 b 529 163 526 185 528 174 b 525 87 532 138 531 112 b 512 60 522 78 519 68 b 477 57 503 49 489 47 b 465 75 471 62 467 68 b 461 109 462 86 460 97 b 472 224 461 147 463 186 b 470 233 472 227 474 230 b 408 233 450 227 429 224 b 413 200 411 222 412 211 z m 742 171 b 706 234 751 202 735 229 b 685 234 699 235 692 235 b 613 232 661 231 637 227 b 607 229 611 232 609 232 b 611 203 610 222 610 212 b 613 175 612 194 612 184 b 608 52 617 134 616 93 b 599 15 606 40 602 27 b 599 1 598 10 595 5 b 606 1 602 -1 604 0 b 644 8 618 7 631 9 b 690 8 659 8 675 8 b 761 63 727 8 751 26 b 734 141 770 98 763 123 b 729 146 732 142 730 143 b 742 171 734 154 739 162 z m 655 108 b 705 109 672 115 689 115 b 710 59 723 103 725 72 b 659 49 694 46 677 45 b 655 108 656 69 653 88 z m 659 183 b 694 178 675 193 685 191 b 678 158 693 164 689 160 b 658 157 672 156 665 155 b 659 183 657 167 658 175 z "},"?":{"ha":728,"x_min":0,"x_max":0,"o":"m 438 247 b 468 277 462 248 466 252 b 469 299 469 284 470 292 b 495 345 468 321 475 336 b 540 380 513 353 526 367 b 611 470 568 407 590 437 b 659 585 634 505 650 544 b 442 986 691 740 609 946 b 169 943 346 1008 253 1001 b 64 802 118 907 82 861 b 83 764 58 781 61 773 b 157 735 107 754 132 744 b 223 715 179 727 201 721 b 246 723 232 712 240 715 b 261 746 251 731 256 738 b 378 790 286 784 332 812 b 430 575 452 754 456 641 b 337 509 413 533 384 509 b 257 508 310 509 284 509 b 232 484 235 508 234 506 b 237 268 224 412 231 340 b 259 247 238 253 244 248 b 350 247 290 247 320 247 b 438 247 380 247 409 247 z m 362 165 b 274 165 333 165 304 165 b 242 133 248 164 244 160 b 250 28 239 98 243 63 b 272 10 253 16 260 10 b 336 9 293 10 315 9 b 450 10 374 9 412 9 b 481 37 471 11 478 17 b 481 63 482 45 482 54 b 482 127 479 85 479 106 b 449 164 485 157 479 164 b 362 164 420 165 391 164 b 362 165 362 165 362 165 z "},"@":{"ha":1136,"x_min":0,"x_max":0,"o":"m 801 665 b 798 707 801 679 800 693 b 762 746 795 728 782 742 b 690 755 738 750 714 756 b 661 749 680 755 669 755 b 621 745 648 738 635 741 b 550 746 598 753 574 751 b 437 701 510 737 472 721 b 388 659 418 691 402 676 b 344 559 364 630 352 595 b 413 338 325 472 347 397 b 562 279 455 301 504 278 b 645 289 590 280 618 282 b 677 273 665 294 669 292 b 684 255 680 267 681 261 b 712 189 693 233 701 210 b 803 108 732 151 758 117 b 894 108 833 101 863 101 b 964 145 921 114 942 131 b 1030 222 994 164 1015 189 b 1047 268 1036 237 1043 252 b 1070 372 1055 303 1065 337 b 1074 483 1074 409 1075 446 b 1067 647 1073 537 1069 592 b 1020 805 1066 704 1050 757 b 976 876 1006 829 991 853 b 878 959 951 913 921 944 b 746 992 835 975 791 987 b 659 1004 717 996 688 1001 b 515 998 611 1009 562 1013 b 389 954 473 985 431 970 b 194 840 278 911 279 911 b 148 794 177 827 162 811 b 71 605 126 766 74 642 b 62 506 67 572 64 539 b 67 408 60 473 61 440 b 125 243 78 350 96 295 b 215 112 150 196 178 151 b 408 13 268 57 331 21 b 476 4 430 10 453 8 b 664 17 540 -9 602 4 b 692 58 689 22 696 33 b 682 91 690 70 686 81 b 647 180 671 121 659 150 b 604 204 636 206 631 209 b 547 202 585 201 566 198 b 468 219 521 207 494 213 b 275 419 361 244 304 319 b 277 608 258 482 262 545 b 322 691 285 639 299 667 b 431 777 354 725 388 755 b 562 827 474 799 516 818 b 702 836 608 836 654 848 b 772 819 725 831 749 825 b 827 785 793 813 811 801 b 870 706 849 763 861 735 b 884 627 879 680 880 653 b 895 498 891 585 898 542 b 887 380 893 459 890 420 b 879 351 886 370 883 360 b 820 341 867 325 841 321 b 806 368 812 349 807 357 b 801 429 804 388 802 408 b 801 543 801 467 801 505 b 801 665 801 584 801 624 z m 565 465 b 517 508 545 466 522 486 b 543 562 512 530 522 551 b 602 568 562 572 582 571 b 617 552 610 566 615 560 b 621 532 620 544 620 535 b 565 465 621 486 601 464 z "},"A":{"ha":813,"x_min":0,"x_max":0,"o":"m 404 976 b 312 976 373 974 343 977 b 267 938 277 975 274 971 b 254 882 263 919 259 901 b 156 467 219 745 186 606 b 64 39 126 324 100 180 b 93 -1 57 10 63 3 b 268 2 151 -8 209 -1 b 298 26 284 2 294 10 b 310 74 302 42 305 58 b 333 94 313 86 320 94 b 482 92 383 93 433 93 b 507 72 495 92 504 85 b 517 36 511 60 515 48 b 548 8 520 18 530 9 b 590 4 562 8 576 5 b 719 4 633 1 676 1 b 749 44 748 7 755 16 b 734 100 744 63 738 81 b 655 476 708 225 683 351 b 545 944 620 632 582 788 b 506 976 539 970 534 975 b 407 976 474 977 440 978 b 404 976 406 976 405 976 z m 393 341 b 380 357 384 343 379 348 b 400 452 384 389 390 421 b 408 458 402 456 405 459 b 417 452 412 457 416 455 b 436 364 426 423 432 394 b 415 340 438 346 433 342 b 400 340 413 340 410 340 b 393 341 403 340 398 340 z "},"B":{"ha":769,"x_min":0,"x_max":0,"o":"m 66 345 b 63 197 65 296 65 246 b 68 29 60 141 60 85 b 94 3 71 10 75 5 b 174 -1 120 0 147 -2 b 337 0 228 3 283 5 b 481 4 386 -4 434 -7 b 687 178 580 27 651 82 b 706 336 707 229 707 282 b 682 454 705 377 698 417 b 682 516 673 476 674 495 b 691 782 712 604 715 692 b 428 976 661 899 537 979 b 337 975 398 976 368 976 b 219 972 298 974 258 970 b 101 971 180 975 140 971 b 68 940 75 971 71 965 b 62 776 60 885 61 831 b 65 490 64 681 65 586 b 66 345 66 442 66 394 z m 286 712 b 304 733 286 724 293 731 b 383 731 330 737 357 739 b 432 599 440 712 455 645 b 404 575 426 587 416 580 b 307 566 373 562 340 563 b 291 580 299 567 293 572 b 287 606 289 588 287 597 b 286 655 286 622 286 639 b 286 712 285 674 286 694 z m 288 380 b 317 408 291 401 297 406 b 396 401 344 410 370 409 b 440 353 420 393 434 377 b 356 238 451 308 429 241 b 311 239 341 238 326 237 b 286 266 292 241 286 248 b 285 319 285 284 285 301 b 285 319 285 319 285 319 b 288 380 286 339 286 360 z "},"C":{"ha":774,"x_min":0,"x_max":0,"o":"m 69 312 b 101 207 76 276 83 240 b 202 65 129 156 160 106 b 303 6 231 36 265 17 b 424 -4 343 -6 383 -5 b 586 53 485 -3 538 18 b 702 219 644 95 683 150 b 682 260 709 243 705 251 b 576 304 647 275 612 290 b 532 316 562 309 547 313 b 505 303 516 319 513 318 b 470 253 495 285 485 268 b 322 278 419 198 355 213 b 318 285 321 280 319 282 b 300 370 308 312 300 340 b 299 412 300 384 300 398 b 302 606 291 477 300 541 b 309 651 302 621 305 636 b 343 722 315 677 324 702 b 461 731 378 761 421 764 b 506 675 481 716 494 696 b 546 659 519 654 522 653 b 692 714 597 672 644 695 b 709 750 712 723 715 731 b 696 786 706 763 701 774 b 475 972 662 877 571 953 b 384 978 445 978 414 978 b 186 889 305 978 238 950 b 75 692 136 831 93 768 b 62 598 68 661 62 629 b 62 487 61 561 62 524 b 69 312 61 429 58 370 z "},"D":{"ha":743,"x_min":0,"x_max":0,"o":"m 61 66 b 61 47 61 59 61 53 b 90 14 62 24 68 17 b 109 13 96 13 103 13 b 418 12 212 13 315 12 b 452 13 429 12 441 12 b 546 41 485 17 519 22 b 656 192 598 79 640 126 b 682 380 671 254 682 316 b 682 597 681 452 681 525 b 653 788 682 662 670 726 b 545 932 636 851 595 894 b 521 943 538 937 530 941 b 417 961 487 953 453 962 b 108 957 314 961 211 961 b 61 908 63 955 61 953 b 61 485 61 767 61 626 b 61 66 61 345 61 206 z m 270 692 b 313 737 270 731 275 736 b 377 731 334 738 356 737 b 444 669 410 721 432 701 b 458 602 453 648 458 626 b 458 378 458 528 458 453 b 448 310 458 355 453 332 b 363 243 439 270 404 243 b 294 245 340 243 317 243 b 272 266 279 246 274 251 b 270 296 270 276 270 286 b 270 494 270 362 270 428 b 270 494 270 494 270 494 b 270 692 270 560 270 626 z "},"E":{"ha":756,"x_min":0,"x_max":0,"o":"m 247 975 b 99 969 198 976 148 971 b 87 968 95 969 91 969 b 68 949 74 966 69 961 b 67 922 67 940 67 931 b 66 804 66 883 67 843 b 61 392 65 667 65 530 b 64 175 59 320 68 248 b 66 34 62 128 65 81 b 93 7 67 11 71 8 b 368 -2 185 1 276 4 b 653 1 463 -9 558 4 b 669 1 658 1 664 1 b 694 28 688 4 694 9 b 693 215 694 90 694 153 b 666 243 693 236 687 242 b 509 240 613 243 561 244 b 361 235 460 237 410 236 b 334 237 352 235 343 236 b 314 260 319 239 314 244 b 313 351 312 290 312 321 b 332 370 313 364 318 368 b 347 370 337 370 342 370 b 465 379 386 373 425 376 b 483 383 471 380 477 382 b 504 407 496 386 503 393 b 507 552 505 455 506 503 b 506 559 507 554 506 557 b 479 585 503 578 498 584 b 422 585 460 586 441 585 b 338 587 394 586 366 586 b 316 608 323 588 317 594 b 315 703 313 639 312 671 b 333 724 315 714 322 722 b 360 726 342 725 351 726 b 467 727 396 727 431 727 b 658 729 530 728 594 728 b 687 758 682 729 687 734 b 687 945 687 820 688 883 b 655 976 687 971 682 975 b 571 976 627 977 599 975 b 377 975 507 977 442 980 b 247 975 334 975 291 974 z "},"F":{"ha":728,"x_min":0,"x_max":0,"o":"m 64 376 b 64 186 64 313 64 249 b 67 52 65 141 66 97 b 95 21 67 28 71 24 b 274 16 155 14 215 17 b 290 18 280 16 285 16 b 303 30 296 19 301 24 b 305 49 304 36 305 43 b 304 251 305 116 307 184 b 302 342 302 281 302 312 b 329 371 302 364 307 368 b 360 373 339 372 350 372 b 466 382 395 375 431 376 b 488 404 482 385 488 390 b 491 549 490 452 491 500 b 462 575 491 570 484 575 b 367 576 430 576 399 575 b 325 580 353 576 339 578 b 307 601 314 581 307 589 b 306 684 306 629 306 657 b 335 711 307 706 312 710 b 605 717 425 716 515 717 b 643 717 618 717 631 716 b 664 739 658 718 663 724 b 665 755 665 744 665 749 b 665 911 665 807 665 859 b 664 938 666 920 665 929 b 647 955 663 948 657 954 b 624 956 640 956 632 957 b 510 957 586 952 548 956 b 167 950 396 960 282 952 b 91 949 142 950 116 950 b 68 925 74 948 69 942 b 67 902 67 918 67 910 b 67 738 67 848 67 793 b 67 497 67 654 67 571 b 64 376 56 450 64 413 z "},"G":{"ha":888,"x_min":0,"x_max":0,"o":"m 409 545 b 374 509 379 544 374 539 b 374 387 373 468 374 427 b 427 336 374 339 377 336 b 487 333 447 336 467 337 b 500 311 500 330 504 322 b 448 241 489 283 472 259 b 339 251 412 214 369 218 b 300 340 315 276 304 307 b 301 629 289 436 289 533 b 339 719 305 662 315 693 b 454 730 372 756 415 760 b 501 671 474 714 488 693 b 534 656 513 651 513 651 b 553 660 540 657 547 658 b 684 712 597 677 640 694 b 700 744 703 719 705 726 b 649 850 688 781 675 819 b 439 968 594 915 528 962 b 424 970 434 968 429 969 b 282 952 375 976 328 969 b 189 888 245 939 215 917 b 80 702 141 833 100 774 b 61 578 69 662 62 621 b 61 403 61 520 61 461 b 201 71 61 273 111 164 b 302 13 229 42 263 23 b 453 6 351 -1 402 -2 b 552 42 489 11 521 24 b 690 205 617 81 662 135 b 713 278 699 229 708 252 b 754 317 721 315 724 314 b 799 323 769 319 784 321 b 825 349 818 325 823 330 b 825 360 825 353 825 356 b 818 524 828 415 822 469 b 794 547 817 541 811 545 b 775 547 788 548 781 548 b 621 548 717 547 658 545 b 409 545 536 551 473 548 z "},"H":{"ha":751,"x_min":0,"x_max":0,"o":"m 690 487 b 690 899 690 624 690 762 b 689 929 690 909 690 919 b 666 954 688 947 683 952 b 647 954 660 954 653 954 b 506 955 600 954 553 955 b 457 906 457 955 457 954 b 453 639 456 817 454 728 b 430 615 452 622 447 616 b 346 613 402 613 374 612 b 300 661 301 613 299 615 b 300 905 303 742 301 823 b 299 935 300 915 300 925 b 282 953 298 945 292 951 b 267 954 277 954 272 954 b 103 955 212 954 158 954 b 92 954 99 955 96 955 b 67 931 75 952 69 947 b 67 904 67 922 67 913 b 65 775 67 861 67 818 b 64 493 60 681 60 586 b 73 108 70 364 68 236 b 70 51 74 89 70 70 b 97 21 70 30 77 23 b 272 22 155 17 214 19 b 294 43 287 23 292 29 b 295 55 295 47 295 51 b 300 207 297 106 299 156 b 300 341 301 252 300 296 b 337 379 301 375 304 378 b 425 381 366 380 396 380 b 440 380 430 381 435 380 b 456 365 448 378 454 374 b 458 339 457 357 458 348 b 460 247 459 308 458 278 b 460 57 463 184 467 120 b 460 46 459 53 460 49 b 484 21 462 30 468 23 b 522 19 497 20 510 19 b 656 22 567 20 611 20 b 685 49 677 22 682 28 b 685 56 685 51 685 54 b 689 197 687 103 689 150 b 689 487 690 294 689 391 b 690 487 689 487 689 487 z "},"I":{"ha":376,"x_min":0,"x_max":0,"o":"m 309 941 b 276 976 308 970 304 975 b 211 977 254 977 232 977 b 112 978 178 978 145 978 b 66 932 69 977 66 973 b 65 821 66 895 68 858 b 61 543 58 728 64 636 b 62 505 61 530 61 518 b 69 36 67 349 76 193 b 107 -4 68 7 77 -3 b 236 -4 150 -5 193 -4 b 278 -2 250 -4 264 -4 b 307 30 301 1 306 7 b 311 274 309 112 311 193 b 308 633 311 394 309 513 b 310 679 308 648 308 664 b 314 833 316 728 314 778 b 309 941 313 865 312 903 z "},"J":{"ha":925,"x_min":0,"x_max":0,"o":"m 340 975 b 290 974 323 975 307 975 b 267 950 274 973 267 966 b 272 794 268 898 269 846 b 295 770 272 777 279 772 b 326 768 305 768 316 768 b 406 767 352 768 379 768 b 462 711 454 766 460 760 b 463 372 466 598 464 485 b 454 312 463 351 459 332 b 431 268 450 296 442 281 b 312 256 399 231 351 226 b 292 274 305 261 299 267 b 265 284 285 281 276 285 b 90 276 207 282 148 279 b 75 273 85 276 80 275 b 62 250 63 270 59 262 b 81 200 68 233 73 216 b 173 70 107 153 135 108 b 280 8 203 38 239 19 b 390 -1 316 -2 353 -3 b 476 14 419 0 448 4 b 574 83 515 28 546 54 b 680 299 633 144 667 216 b 695 511 691 369 694 440 b 695 709 695 577 695 643 b 695 740 695 719 694 730 b 718 763 696 758 700 762 b 825 770 754 766 789 768 b 862 805 856 772 862 776 b 862 942 863 851 863 896 b 832 971 862 965 856 970 b 774 972 813 972 794 972 b 574 972 705 972 635 972 b 340 975 490 973 415 974 z "},"K":{"ha":779,"x_min":0,"x_max":0,"o":"m 306 943 b 281 969 305 963 300 969 b 98 971 220 971 159 971 b 65 936 71 971 66 963 b 66 917 65 929 66 923 b 62 760 67 865 63 813 b 62 497 60 673 61 585 b 66 375 62 457 65 416 b 71 177 68 309 70 243 b 69 48 72 134 75 91 b 70 25 68 40 68 32 b 90 5 72 14 78 6 b 116 3 99 4 107 4 b 257 4 163 1 210 3 b 305 52 303 6 305 7 b 306 296 305 134 306 215 b 308 327 306 306 307 317 b 314 335 308 330 311 334 b 324 331 318 337 322 334 b 341 297 330 320 335 308 b 383 207 355 267 368 237 b 470 38 412 151 442 95 b 515 10 480 18 494 9 b 603 10 544 10 574 9 b 687 10 631 10 659 10 b 709 44 723 11 724 13 b 706 50 708 46 707 48 b 611 233 680 114 641 171 b 501 451 576 307 541 380 b 502 545 475 497 475 498 b 591 714 534 600 562 657 b 671 861 616 763 642 813 b 715 950 688 889 701 920 b 703 970 721 963 717 969 b 554 971 653 971 604 971 b 504 970 537 971 521 970 b 474 951 490 970 481 963 b 451 907 467 936 459 921 b 338 686 410 835 372 762 b 322 656 334 676 328 666 b 313 652 320 653 317 650 b 307 660 310 653 307 657 b 307 702 306 674 307 688 b 307 805 307 737 307 771 b 306 943 307 851 306 897 z "},"L":{"ha":754,"x_min":0,"x_max":0,"o":"m 312 799 b 309 948 311 848 311 898 b 279 978 309 971 303 976 b 264 978 274 978 269 978 b 96 975 208 977 152 976 b 63 940 68 974 64 969 b 62 898 62 926 63 912 b 62 708 62 835 62 771 b 61 189 62 535 61 362 b 62 40 61 139 62 90 b 94 5 63 10 67 6 b 357 -3 182 3 270 3 b 651 -2 455 -9 553 2 b 662 -2 654 -2 658 -2 b 692 30 684 1 692 7 b 691 216 693 92 692 154 b 663 243 691 238 685 243 b 480 239 602 243 540 246 b 342 236 434 234 388 235 b 310 269 317 237 312 243 b 309 299 309 279 310 289 b 310 608 306 402 308 505 b 312 799 311 672 312 736 z "},"M":{"ha":1011,"x_min":0,"x_max":0,"o":"m 67 59 b 68 40 66 52 67 46 b 86 22 70 30 76 24 b 108 20 93 21 101 21 b 253 21 157 18 205 19 b 286 52 280 22 284 27 b 286 68 286 58 286 63 b 289 342 287 159 288 251 b 290 365 289 350 289 358 b 297 378 290 370 291 376 b 308 370 303 380 306 375 b 315 357 311 366 313 361 b 366 241 332 318 349 280 b 391 182 374 222 383 202 b 425 156 397 166 408 158 b 585 153 479 153 532 150 b 636 191 611 154 627 166 b 675 290 648 224 661 257 b 714 382 687 320 697 355 b 723 388 716 385 720 389 b 728 378 727 387 728 382 b 734 72 735 277 734 174 b 769 36 735 41 738 38 b 899 34 813 33 856 32 b 942 79 939 36 941 39 b 944 373 942 177 943 275 b 950 552 945 433 949 492 b 948 926 951 677 943 801 b 921 954 948 946 942 954 b 742 954 862 955 802 954 b 711 935 728 954 718 947 b 700 915 707 929 703 922 b 592 667 664 833 628 750 b 532 540 572 624 552 582 b 517 525 529 533 527 524 b 502 540 508 525 506 534 b 495 554 499 544 498 549 b 362 828 451 645 407 737 b 318 913 348 857 332 884 b 273 940 309 932 294 940 b 116 941 220 939 168 941 b 86 940 106 941 96 941 b 61 913 67 938 62 932 b 62 821 61 882 61 852 b 62 482 62 708 62 595 b 67 59 60 341 71 200 z "},"N":{"ha":744,"x_min":0,"x_max":0,"o":"m 683 738 b 682 905 683 794 683 850 b 650 937 681 932 677 937 b 517 938 606 938 561 938 b 475 937 503 938 489 938 b 457 919 465 936 459 929 b 456 904 456 914 456 909 b 451 641 460 817 449 729 b 449 619 452 634 451 626 b 444 614 449 617 446 615 b 438 617 442 614 439 615 b 422 651 429 626 426 639 b 317 908 392 739 353 823 b 262 945 307 934 290 946 b 106 945 210 944 158 945 b 87 944 100 945 93 945 b 62 921 70 943 64 937 b 62 906 62 916 62 911 b 67 300 64 704 56 502 b 69 87 71 229 68 158 b 69 64 69 79 68 71 b 92 38 70 47 75 42 b 111 36 98 37 105 36 b 240 38 154 35 197 33 b 286 89 285 44 285 43 b 288 356 286 178 287 267 b 291 386 288 366 286 377 b 297 390 292 388 295 390 b 303 388 299 391 302 389 b 313 371 307 383 310 377 b 363 256 330 333 347 295 b 440 69 389 194 418 133 b 490 31 448 45 463 34 b 646 34 542 26 594 29 b 677 67 672 36 676 40 b 682 215 679 116 681 166 b 683 490 682 307 683 398 b 683 738 683 573 683 655 z "},"O":{"ha":792,"x_min":0,"x_max":0,"o":"m 729 521 b 704 735 732 593 725 665 b 635 869 690 784 671 831 b 331 968 552 960 449 988 b 136 827 243 953 181 899 b 61 563 85 747 61 658 b 62 395 61 507 61 451 b 81 268 62 352 69 309 b 204 69 104 190 147 126 b 320 8 236 36 276 18 b 415 0 351 1 383 -1 b 665 155 528 2 609 61 b 729 383 706 224 727 301 b 729 486 729 418 729 452 b 729 521 729 498 729 509 z m 497 343 b 478 281 493 322 488 300 b 400 224 462 249 439 224 b 319 280 361 223 336 248 b 300 345 309 300 302 322 b 301 626 290 439 290 533 b 340 720 306 660 316 693 b 458 719 375 760 423 760 b 495 625 482 692 490 659 b 502 564 498 605 501 584 b 502 473 503 534 502 503 b 497 343 502 429 503 386 z "},"P":{"ha":724,"x_min":0,"x_max":0,"o":"m 64 272 b 64 73 64 206 63 140 b 105 31 65 41 73 32 b 215 32 142 30 179 32 b 246 37 226 33 236 34 b 263 58 258 39 262 45 b 262 73 263 63 262 68 b 259 256 258 134 258 195 b 261 290 259 268 260 279 b 290 318 264 312 268 317 b 393 327 325 319 359 322 b 546 381 447 335 499 351 b 596 427 565 393 583 407 b 654 567 622 471 644 516 b 661 685 662 606 661 645 b 632 802 661 726 649 765 b 571 879 617 832 598 858 b 384 942 516 924 455 944 b 117 940 295 940 206 941 b 98 940 111 940 105 940 b 64 905 72 938 65 931 b 61 786 63 865 61 826 b 63 623 62 732 62 677 b 64 489 64 578 64 533 b 64 272 64 417 64 344 z m 268 694 b 289 716 269 709 276 715 b 350 716 310 717 330 718 b 404 677 374 713 392 698 b 411 604 417 654 418 629 b 380 568 407 587 396 574 b 351 560 371 564 361 560 b 281 565 327 559 300 550 b 269 616 265 576 269 600 b 268 645 268 626 268 635 b 268 694 267 661 267 678 z "},"Q":{"ha":799,"x_min":0,"x_max":0,"o":"m 61 440 b 76 281 61 387 63 333 b 201 71 97 199 142 131 b 310 11 231 40 269 21 b 446 3 354 0 400 -2 b 489 -21 475 6 478 5 b 509 -62 495 -35 500 -49 b 532 -70 515 -70 522 -73 b 554 -62 539 -68 547 -65 b 711 14 608 -40 660 -14 b 727 24 717 17 722 21 b 735 48 735 30 738 38 b 719 83 730 60 725 71 b 687 152 709 106 699 129 b 688 207 678 170 679 188 b 730 425 719 276 730 350 b 730 524 730 458 728 491 b 705 731 733 595 723 664 b 635 870 691 782 671 830 b 327 969 551 962 447 989 b 137 833 242 954 182 901 b 62 592 90 761 63 680 b 61 490 62 558 62 524 b 61 440 61 473 61 457 z m 498 367 b 477 282 497 337 490 309 b 398 225 461 250 437 225 b 318 281 359 225 335 249 b 295 373 303 309 296 340 b 295 582 294 442 294 512 b 313 679 296 615 302 648 b 346 730 320 699 331 716 b 449 729 376 758 420 757 b 490 648 472 707 484 678 b 499 573 495 623 499 598 b 499 477 499 541 499 509 b 498 367 499 440 499 403 z "},"R":{"ha":822,"x_min":0,"x_max":0,"o":"m 66 293 b 63 98 66 228 64 163 b 67 26 63 74 63 50 b 99 -3 72 3 75 -1 b 252 -2 150 -6 201 -4 b 256 -2 253 -2 254 -2 b 278 23 273 1 277 5 b 278 53 279 33 278 43 b 278 252 278 119 278 186 b 279 282 278 262 278 272 b 299 302 280 294 287 301 b 348 303 315 303 332 302 b 390 278 368 305 382 297 b 399 261 393 272 396 267 b 503 33 437 186 476 112 b 554 -3 512 7 527 -3 b 729 -2 612 -4 670 -5 b 744 -1 734 -2 739 -2 b 758 22 759 1 764 8 b 731 81 750 42 741 62 b 610 319 691 160 651 240 b 610 368 600 336 599 351 b 656 451 626 395 641 424 b 703 580 678 492 695 534 b 694 783 715 648 713 715 b 431 977 662 900 539 980 b 336 976 399 977 368 977 b 218 974 297 976 257 971 b 100 972 178 977 139 973 b 67 940 75 972 70 966 b 62 796 61 892 60 844 b 66 506 65 691 58 587 b 66 293 66 420 67 356 z m 286 709 b 309 733 287 726 292 731 b 377 732 332 737 355 737 b 431 594 444 716 457 634 b 379 566 419 576 399 568 b 310 565 356 564 333 565 b 290 583 298 565 292 573 b 286 649 284 607 287 631 b 286 709 286 673 285 691 z "},"S":{"ha":838,"x_min":0,"x_max":0,"o":"m 527 20 b 579 43 544 28 562 34 b 706 187 639 75 689 119 b 675 411 726 265 718 341 b 601 493 656 443 631 470 b 446 589 553 530 502 564 b 374 650 416 602 393 624 b 367 690 366 662 362 675 b 437 724 377 715 404 739 b 490 695 456 716 473 707 b 597 616 527 670 563 644 b 639 618 617 600 620 600 b 696 674 659 636 678 655 b 766 744 720 697 744 720 b 766 780 780 759 779 766 b 758 788 763 783 760 786 b 620 903 712 826 667 865 b 358 963 543 965 456 982 b 158 852 279 947 213 908 b 97 708 120 813 97 764 b 208 476 97 614 131 535 b 359 373 256 439 307 404 b 436 311 388 356 414 336 b 457 279 444 301 452 291 b 418 226 468 250 449 224 b 372 241 401 227 386 234 b 250 327 327 264 289 297 b 214 354 238 336 226 346 b 183 352 201 363 194 362 b 169 339 178 348 174 343 b 87 249 142 309 114 279 b 67 226 80 242 73 234 b 68 195 59 214 59 206 b 76 187 71 192 74 189 b 237 53 126 137 179 91 b 431 3 292 17 353 1 b 527 20 455 2 492 6 z "},"T":{"ha":729,"x_min":0,"x_max":0,"o":"m 251 74 b 252 39 251 62 251 51 b 276 15 254 23 260 17 b 299 14 284 14 292 14 b 421 16 340 15 381 15 b 452 16 431 16 442 16 b 480 45 472 18 478 24 b 480 87 481 59 481 73 b 480 239 476 138 476 188 b 479 335 482 271 481 303 b 478 388 478 352 477 370 b 478 613 482 463 482 538 b 478 712 476 646 477 679 b 512 746 479 740 484 744 b 535 747 519 747 527 747 b 638 750 569 748 603 749 b 665 775 657 751 663 756 b 665 927 669 826 666 877 b 642 952 665 945 659 950 b 578 957 621 955 599 957 b 341 958 499 958 420 958 b 109 959 264 958 186 959 b 82 958 100 959 91 959 b 61 936 68 957 62 950 b 62 921 61 931 61 926 b 64 806 62 883 64 844 b 122 749 65 750 65 749 b 217 747 154 749 186 749 b 243 722 237 747 242 741 b 248 615 245 686 248 651 b 250 363 249 531 250 447 b 251 74 250 267 251 170 z "},"U":{"ha":789,"x_min":0,"x_max":0,"o":"m 301 697 b 299 930 306 775 300 852 b 274 959 299 953 294 959 b 95 960 215 960 155 960 b 66 930 72 959 65 953 b 62 716 68 858 62 787 b 67 396 60 610 62 503 b 173 117 72 290 106 198 b 269 38 200 84 229 54 b 519 35 352 5 435 5 b 574 68 539 43 557 54 b 703 271 638 122 679 191 b 725 441 720 326 725 384 b 726 925 727 602 726 763 b 726 940 726 930 726 935 b 706 959 724 952 718 958 b 679 960 697 960 688 960 b 534 960 631 960 582 960 b 515 959 528 960 521 960 b 495 940 503 958 497 952 b 495 928 495 936 495 932 b 493 723 494 860 491 791 b 495 402 496 616 495 509 b 486 338 494 381 490 359 b 458 285 482 318 472 300 b 341 276 426 251 378 247 b 304 335 321 291 307 310 b 300 381 302 350 300 366 b 300 544 300 435 300 490 b 299 644 300 577 299 611 b 301 697 299 662 300 679 z "},"V":{"ha":796,"x_min":0,"x_max":0,"o":"m 495 -2 b 531 28 520 -2 525 2 b 542 80 536 45 538 62 b 610 369 565 176 588 272 b 669 652 633 463 650 557 b 728 923 687 743 704 834 b 694 973 740 967 731 970 b 534 970 641 979 588 974 b 497 936 507 967 504 965 b 457 774 483 882 470 828 b 412 573 442 707 427 640 b 401 560 411 567 409 560 b 392 571 395 560 393 566 b 387 589 390 577 388 583 b 346 768 373 649 360 708 b 302 945 332 827 316 886 b 273 969 298 961 289 968 b 182 975 242 971 212 974 b 86 971 150 977 118 976 b 63 937 64 968 58 960 b 77 882 66 919 73 901 b 157 498 104 754 129 626 b 268 28 193 341 231 185 b 304 -2 273 4 280 -2 b 400 -2 336 -3 368 -2 b 495 -2 431 -2 463 -3 z "},"W":{"ha":1028,"x_min":0,"x_max":0,"o":"m 89 983 b 61 955 68 982 61 975 b 66 883 62 931 64 907 b 77 785 69 850 74 818 b 89 648 82 739 85 694 b 101 474 93 590 97 532 b 111 341 104 429 106 385 b 146 38 122 240 134 139 b 187 1 150 6 154 2 b 210 1 194 1 202 1 b 366 4 262 2 314 3 b 430 48 410 5 413 7 b 471 174 448 89 459 131 b 517 277 476 191 494 282 b 545 215 533 273 540 228 b 573 128 554 186 563 157 b 609 24 585 93 598 59 b 666 -15 618 -5 637 -17 b 727 -14 687 -13 707 -15 b 819 -11 758 -14 788 -13 b 847 13 838 -10 842 -6 b 850 28 848 18 849 23 b 860 130 853 62 857 96 b 871 225 864 162 866 194 b 912 473 884 308 898 390 b 935 666 923 537 926 602 b 949 783 940 705 945 744 b 964 935 955 833 959 884 b 921 983 970 983 961 982 b 762 988 868 985 815 981 b 735 968 745 990 737 984 b 731 903 733 947 734 925 b 695 659 719 822 707 740 b 685 610 693 642 689 626 b 677 603 685 607 681 604 b 669 608 674 601 670 604 b 660 637 666 617 662 627 b 624 785 648 686 635 735 b 579 822 619 809 608 820 b 526 825 561 824 543 824 b 446 829 499 827 472 828 b 400 794 417 830 407 822 b 398 783 398 790 398 786 b 357 620 384 729 371 674 b 346 583 354 609 354 593 b 336 581 344 581 340 579 b 332 588 334 583 333 586 b 326 622 329 600 328 610 b 315 751 322 665 321 708 b 293 952 307 818 294 884 b 257 984 292 978 285 983 b 177 984 230 984 203 984 b 89 983 148 984 119 983 z "},"X":{"ha":722,"x_min":0,"x_max":0,"o":"m 177 961 b 78 960 144 961 111 961 b 64 938 62 960 58 953 b 91 871 73 915 83 894 b 228 519 134 752 181 636 b 228 450 238 495 239 473 b 221 432 225 444 223 438 b 77 63 168 311 124 186 b 69 41 74 56 71 49 b 85 19 65 26 68 21 b 256 16 142 12 199 11 b 305 55 283 18 298 31 b 312 77 307 63 309 70 b 351 172 325 109 338 141 b 371 172 356 183 366 183 b 407 84 384 143 395 114 b 423 42 413 70 418 56 b 455 18 429 28 440 20 b 645 20 519 9 582 12 b 655 36 654 21 658 27 b 649 54 653 43 651 49 b 611 154 636 88 623 121 b 498 441 576 251 538 347 b 497 525 485 470 485 496 b 575 720 525 589 549 655 b 655 930 602 790 625 861 b 659 941 657 933 658 937 b 646 960 661 950 656 958 b 627 961 640 961 633 961 b 459 961 571 961 515 960 b 416 931 436 961 424 951 b 384 853 406 905 396 879 b 360 819 379 840 378 819 b 339 852 346 819 344 840 b 307 929 328 878 316 903 b 261 961 299 951 285 962 b 177 960 233 959 205 960 b 177 961 177 960 177 960 z "},"Y":{"ha":763,"x_min":0,"x_max":0,"o":"m 256 211 b 256 28 259 150 263 89 b 256 17 255 24 255 20 b 283 -15 257 -3 264 -11 b 305 -18 290 -16 298 -18 b 423 -17 345 -18 384 -18 b 477 -12 441 -17 459 -15 b 501 15 495 -10 499 -5 b 501 27 501 19 501 23 b 503 381 502 145 502 263 b 517 537 503 433 510 485 b 524 562 518 545 521 554 b 584 698 544 608 562 654 b 694 958 626 783 658 871 b 699 972 696 963 698 967 b 687 990 703 984 699 990 b 482 991 619 991 550 991 b 446 968 464 991 453 983 b 436 943 442 960 440 951 b 393 845 422 910 408 878 b 381 832 391 839 388 833 b 367 844 373 832 370 838 b 330 927 354 871 342 899 b 249 982 309 979 306 983 b 81 978 193 982 137 979 b 70 976 78 978 74 977 b 62 962 63 974 60 969 b 67 944 63 956 65 950 b 145 757 93 882 118 819 b 235 559 175 691 207 626 b 248 508 242 543 246 526 b 256 253 253 423 255 338 b 256 211 256 239 255 225 z "},"Z":{"ha":799,"x_min":0,"x_max":0,"o":"m 555 230 b 462 230 524 230 493 230 b 406 255 442 230 410 228 b 416 294 404 268 410 282 b 543 550 459 380 501 465 b 596 651 560 584 577 618 b 657 757 616 687 637 721 b 730 918 684 808 707 863 b 736 951 734 928 739 940 b 703 969 732 971 717 968 b 695 970 701 970 698 970 b 478 971 623 970 551 971 b 284 973 413 972 348 968 b 128 971 231 978 180 974 b 100 944 106 970 100 965 b 98 772 98 887 98 829 b 133 740 99 744 104 740 b 148 740 138 740 143 740 b 366 739 221 739 293 739 b 395 726 377 738 393 743 b 388 700 397 717 392 708 b 94 154 290 518 192 336 b 85 11 73 114 37 47 b 149 -1 102 -1 128 -1 b 247 -2 182 -2 214 -2 b 444 -1 313 -2 378 -2 b 684 6 524 1 604 8 b 695 6 688 6 691 6 b 713 24 705 8 711 14 b 714 43 714 30 714 36 b 714 195 714 93 714 144 b 677 229 713 225 708 229 b 555 229 636 230 595 229 b 555 230 555 230 555 230 z "},"[":{"ha":828,"x_min":0,"x_max":0,"o":"m 113 406 b 111 416 110 410 111 413 b 117 483 113 439 114 461 b 115 495 117 487 119 492 b 61 494 98 488 80 486 b 70 382 65 456 67 419 b 62 267 72 344 65 308 b 113 267 80 276 96 270 b 110 294 115 278 112 286 b 121 345 107 313 108 330 b 139 369 127 352 131 361 b 174 266 158 337 166 302 b 203 272 185 268 193 272 b 233 269 213 273 223 269 b 230 276 233 272 232 274 b 207 314 220 287 214 301 b 167 410 192 345 181 378 b 179 427 170 416 174 421 b 221 479 193 444 207 461 b 229 494 225 483 229 487 b 199 487 218 493 209 486 b 165 494 188 487 178 492 b 113 406 156 459 139 430 z m 315 282 b 383 265 338 281 360 275 b 378 296 382 277 379 286 b 379 327 377 306 381 315 b 301 321 353 310 327 309 b 297 367 299 336 295 351 b 323 366 306 369 314 367 b 347 360 331 365 337 358 b 343 391 345 371 344 381 b 343 423 341 401 346 411 b 297 409 329 412 315 406 b 301 446 297 423 299 435 b 377 439 327 457 351 449 b 378 497 372 460 373 478 b 243 495 333 486 289 483 b 245 264 264 418 264 342 b 315 282 269 277 291 282 z m 437 272 b 473 266 449 272 460 267 b 462 354 464 296 460 325 b 488 358 471 357 480 358 b 508 327 498 349 504 338 b 524 272 515 309 521 291 b 528 264 525 269 525 265 b 530 264 529 264 529 264 b 533 265 531 264 532 265 b 572 272 545 274 558 276 b 583 273 575 271 579 270 b 538 373 558 302 541 334 b 560 416 551 385 557 399 b 502 493 566 455 542 489 b 476 494 493 494 485 494 b 415 496 455 492 435 493 b 404 495 411 497 407 498 b 410 468 406 486 409 477 b 417 326 417 421 421 374 b 403 270 416 307 414 287 b 403 266 403 270 403 269 b 437 272 415 266 426 271 z m 466 439 b 468 449 467 442 467 446 b 509 436 482 454 502 448 b 503 407 516 425 514 414 b 464 408 488 398 478 398 b 466 439 465 419 465 429 z m 767 267 b 757 371 758 301 757 336 b 760 477 757 406 759 442 b 759 499 760 484 761 491 b 708 498 742 487 725 490 b 710 454 704 482 709 468 b 712 409 712 439 713 424 b 711 365 712 395 715 381 b 702 379 707 371 705 375 b 662 453 687 402 674 427 b 641 495 656 467 649 482 b 618 491 633 493 626 491 b 597 496 611 490 605 497 b 599 459 598 483 599 471 b 604 381 601 433 603 407 b 599 273 606 345 607 309 b 600 265 598 271 597 268 b 652 267 616 269 634 275 b 650 278 653 272 651 275 b 645 303 648 286 645 294 b 644 396 645 334 643 365 b 647 404 645 398 643 402 b 650 400 648 402 649 401 b 695 321 665 373 680 347 b 720 265 704 303 716 286 b 722 262 720 264 721 264 b 766 263 736 268 751 264 b 767 267 766 266 767 266 z m 248 228 b 244 228 247 228 245 228 b 205 225 232 219 219 220 b 163 229 191 229 177 232 b 72 155 119 222 88 197 b 63 106 66 139 64 123 b 137 11 62 59 99 21 b 204 10 160 5 182 4 b 253 5 221 15 238 16 b 257 4 254 4 255 4 b 252 33 255 14 253 24 b 251 63 251 43 251 53 b 253 93 250 73 256 82 b 242 82 247 91 245 86 b 168 56 226 59 196 48 b 121 117 142 64 122 89 b 167 177 121 146 139 170 b 233 161 191 184 214 178 b 243 151 237 158 240 154 b 252 151 246 149 248 147 b 246 188 248 163 246 175 b 252 228 246 201 252 214 b 248 228 249 228 249 229 z m 336 232 b 307 224 325 231 317 225 b 277 226 297 224 287 228 b 284 171 279 207 282 189 b 288 115 285 152 286 134 b 287 60 289 97 287 78 b 283 3 287 41 284 23 b 342 8 304 7 323 6 b 401 2 361 11 380 8 b 397 58 392 22 394 39 b 334 55 375 51 355 48 b 336 232 322 114 332 173 z m 413 200 b 420 76 415 159 417 117 b 466 9 422 45 437 22 b 493 1 475 5 484 3 b 568 48 524 -2 558 13 b 574 89 571 62 574 75 b 572 159 574 112 572 136 b 579 226 571 181 570 204 b 578 234 580 228 582 231 b 547 227 568 231 558 226 b 517 233 536 227 526 231 b 516 225 515 229 515 227 b 525 197 521 216 523 206 b 529 163 526 185 528 174 b 525 87 532 138 531 112 b 512 60 522 78 519 68 b 477 57 503 49 489 47 b 465 75 471 62 467 68 b 461 109 462 86 460 97 b 472 224 461 147 463 186 b 470 233 472 227 474 230 b 408 233 450 227 429 224 b 413 200 411 222 412 211 z m 742 171 b 706 234 751 202 735 229 b 685 234 699 235 692 235 b 613 232 661 231 637 227 b 607 229 611 232 609 232 b 611 203 610 222 610 212 b 613 175 612 194 612 184 b 608 52 617 134 616 93 b 599 15 606 40 602 27 b 599 1 598 10 595 5 b 606 1 602 -1 604 0 b 644 8 618 7 631 9 b 690 8 659 8 675 8 b 761 63 727 8 751 26 b 734 141 770 98 763 123 b 729 146 732 142 730 143 b 742 171 734 154 739 162 z m 655 108 b 705 109 672 115 689 115 b 710 59 723 103 725 72 b 659 49 694 46 677 45 b 655 108 656 69 653 88 z m 659 183 b 694 178 675 193 685 191 b 678 158 693 164 689 160 b 658 157 672 156 665 155 b 659 183 657 167 658 175 z "},"\\":{"ha":828,"x_min":0,"x_max":0,"o":"m 113 406 b 111 416 110 410 111 413 b 117 483 113 439 114 461 b 115 495 117 487 119 492 b 61 494 98 488 80 486 b 70 382 65 456 67 419 b 62 267 72 344 65 308 b 113 267 80 276 96 270 b 110 294 115 278 112 286 b 121 345 107 313 108 330 b 139 369 127 352 131 361 b 174 266 158 337 166 302 b 203 272 185 268 193 272 b 233 269 213 273 223 269 b 230 276 233 272 232 274 b 207 314 220 287 214 301 b 167 410 192 345 181 378 b 179 427 170 416 174 421 b 221 479 193 444 207 461 b 229 494 225 483 229 487 b 199 487 218 493 209 486 b 165 494 188 487 178 492 b 113 406 156 459 139 430 z m 315 282 b 383 265 338 281 360 275 b 378 296 382 277 379 286 b 379 327 377 306 381 315 b 301 321 353 310 327 309 b 297 367 299 336 295 351 b 323 366 306 369 314 367 b 347 360 331 365 337 358 b 343 391 345 371 344 381 b 343 423 341 401 346 411 b 297 409 329 412 315 406 b 301 446 297 423 299 435 b 377 439 327 457 351 449 b 378 497 372 460 373 478 b 243 495 333 486 289 483 b 245 264 264 418 264 342 b 315 282 269 277 291 282 z m 437 272 b 473 266 449 272 460 267 b 462 354 464 296 460 325 b 488 358 471 357 480 358 b 508 327 498 349 504 338 b 524 272 515 309 521 291 b 528 264 525 269 525 265 b 530 264 529 264 530 264 b 533 265 531 264 532 265 b 572 272 545 274 558 276 b 583 273 576 271 579 270 b 538 373 558 302 541 334 b 560 416 551 385 557 399 b 502 493 566 455 542 489 b 476 494 493 494 485 494 b 415 496 455 492 435 493 b 404 495 411 497 407 498 b 410 468 406 486 409 477 b 417 326 417 421 421 374 b 403 270 416 307 414 287 b 403 266 403 270 403 269 b 437 272 415 266 426 271 z m 466 439 b 468 449 467 442 467 446 b 509 436 482 454 502 448 b 503 407 516 425 514 414 b 464 408 488 398 478 398 b 466 439 465 419 465 429 z m 767 267 b 757 371 758 301 757 336 b 760 477 757 406 759 442 b 759 499 760 484 761 491 b 708 498 742 487 725 490 b 710 454 704 482 709 468 b 712 409 712 439 713 424 b 711 365 712 395 715 381 b 702 379 707 371 705 375 b 662 453 687 402 674 427 b 641 495 656 467 649 482 b 618 491 633 493 626 491 b 597 496 611 490 605 497 b 600 459 598 483 599 471 b 604 381 601 433 603 407 b 599 273 606 345 607 309 b 600 265 598 271 597 268 b 652 267 616 269 634 275 b 650 278 653 272 651 275 b 645 303 648 286 645 294 b 644 396 645 334 643 365 b 647 404 645 398 643 402 b 650 400 648 402 649 401 b 695 321 665 373 680 347 b 720 265 704 303 716 286 b 722 262 720 264 721 264 b 766 263 736 268 751 264 b 767 267 766 266 767 266 z m 248 228 b 244 228 247 228 245 228 b 205 225 232 219 219 220 b 163 229 191 229 177 232 b 72 155 119 222 88 197 b 63 106 66 139 64 123 b 138 11 62 59 99 21 b 204 10 160 5 182 4 b 253 5 221 15 238 16 b 257 4 254 4 255 4 b 252 33 255 14 253 24 b 251 63 251 43 251 53 b 253 93 250 73 256 82 b 242 82 247 91 245 86 b 168 56 226 59 196 48 b 121 117 142 64 122 89 b 167 177 121 146 139 170 b 233 161 191 184 214 178 b 243 151 237 158 240 154 b 252 151 246 149 248 147 b 246 188 248 163 246 175 b 252 228 246 201 252 214 b 248 228 249 228 249 229 z m 336 232 b 307 224 325 231 317 225 b 277 226 297 224 287 228 b 284 171 279 207 282 189 b 288 115 285 152 286 134 b 287 60 289 97 287 78 b 283 3 287 41 284 23 b 342 8 304 7 323 6 b 401 2 361 11 380 8 b 397 58 392 22 394 39 b 334 55 375 51 355 48 b 336 232 322 114 332 173 z m 413 200 b 420 76 415 159 417 117 b 466 9 422 45 437 22 b 493 1 475 5 484 3 b 568 48 524 -2 558 13 b 574 89 571 62 574 75 b 572 159 574 112 572 136 b 579 226 571 181 570 204 b 578 234 580 228 582 231 b 547 227 568 231 558 226 b 517 233 536 227 526 231 b 516 225 515 229 515 227 b 525 197 521 216 523 206 b 529 163 526 185 528 174 b 525 87 532 138 531 112 b 512 60 522 78 519 68 b 477 57 503 49 489 47 b 465 75 471 62 467 68 b 461 109 462 86 460 97 b 472 224 461 147 463 186 b 470 233 472 227 474 230 b 408 233 450 227 429 224 b 413 200 411 222 412 211 z m 742 171 b 706 234 751 202 735 229 b 685 234 699 235 692 235 b 613 232 661 231 637 227 b 607 229 611 232 609 232 b 611 203 611 222 610 212 b 613 175 612 194 612 184 b 608 52 617 134 616 93 b 599 15 606 40 602 27 b 599 1 598 10 595 5 b 606 1 602 -1 604 0 b 644 8 618 7 631 9 b 690 8 659 8 675 8 b 761 63 727 8 751 26 b 734 141 770 98 763 123 b 729 146 732 142 730 143 b 742 171 734 154 739 162 z m 655 108 b 705 109 672 115 689 115 b 710 59 723 103 725 72 b 659 49 694 46 677 45 b 655 108 656 69 653 88 z m 659 183 b 694 178 675 193 685 191 b 678 158 693 164 689 160 b 658 157 672 156 665 155 b 659 183 657 167 658 175 z "},"]":{"ha":828,"x_min":0,"x_max":0,"o":"m 113 406 b 111 416 110 410 111 413 b 117 483 113 439 114 461 b 115 495 117 487 119 492 b 61 494 98 488 80 486 b 70 382 65 456 67 419 b 62 267 72 344 65 308 b 113 267 80 276 97 270 b 110 294 115 278 112 286 b 121 345 107 313 108 330 b 139 369 127 352 131 361 b 174 266 158 337 166 302 b 203 272 185 268 193 272 b 233 269 213 273 223 269 b 230 276 233 272 232 274 b 207 314 220 287 214 301 b 167 410 192 345 181 378 b 179 427 170 416 174 421 b 221 479 193 444 207 461 b 229 494 225 483 229 487 b 199 487 218 493 209 486 b 165 494 188 487 178 492 b 113 406 156 459 139 430 z m 315 282 b 383 265 338 281 360 275 b 378 296 382 277 379 286 b 379 327 377 306 381 315 b 301 321 353 310 327 309 b 297 367 299 336 295 351 b 323 366 306 369 314 367 b 347 360 331 365 337 358 b 343 391 345 371 344 381 b 343 423 341 401 346 411 b 297 409 329 412 315 406 b 301 446 297 423 299 435 b 377 439 327 457 351 449 b 378 497 372 460 373 478 b 243 495 333 486 289 483 b 245 264 264 418 264 342 b 315 282 269 277 291 282 z m 437 272 b 473 266 449 272 460 267 b 462 354 464 296 460 325 b 488 358 471 357 480 358 b 508 327 498 349 504 338 b 524 272 515 309 521 291 b 528 264 525 269 525 265 b 530 264 529 264 529 264 b 533 265 531 264 532 265 b 572 272 545 274 558 276 b 583 273 575 271 579 270 b 538 373 558 302 541 334 b 560 416 551 385 557 399 b 502 493 566 455 542 489 b 476 494 493 494 485 494 b 415 496 455 492 435 493 b 404 495 411 497 407 498 b 410 468 406 486 409 477 b 417 326 417 421 421 374 b 403 270 416 307 414 287 b 403 266 403 270 403 269 b 437 272 415 266 426 271 z m 466 439 b 468 449 467 442 467 446 b 509 436 482 454 501 448 b 503 407 516 425 514 414 b 464 408 488 398 478 398 b 466 439 465 419 465 429 z m 767 267 b 757 371 758 301 757 336 b 760 477 757 406 759 442 b 759 499 760 484 761 491 b 708 498 742 487 725 490 b 710 454 704 482 709 468 b 712 409 712 439 713 424 b 711 365 712 395 715 381 b 702 379 707 371 705 375 b 662 453 687 402 674 427 b 641 495 656 467 649 482 b 618 491 633 493 626 491 b 597 496 611 490 605 497 b 599 459 598 483 599 471 b 604 381 601 433 603 407 b 599 273 606 345 607 309 b 600 265 598 271 597 268 b 652 267 616 269 634 275 b 650 278 653 272 651 275 b 645 303 648 286 645 294 b 644 396 645 334 643 365 b 647 404 645 398 643 402 b 650 400 648 402 649 401 b 695 321 665 373 680 347 b 720 265 704 303 716 286 b 722 262 720 264 721 264 b 766 263 736 268 751 264 b 767 267 766 266 767 266 z m 248 228 b 244 228 247 228 245 228 b 205 225 232 219 219 220 b 163 229 191 229 177 232 b 72 155 119 222 88 197 b 63 106 66 139 64 123 b 137 11 62 59 99 21 b 204 10 160 5 182 4 b 253 5 221 15 238 16 b 257 4 254 4 255 4 b 252 33 255 14 253 24 b 251 63 251 43 251 53 b 253 93 250 73 256 82 b 242 82 247 91 245 86 b 168 56 226 59 196 48 b 121 117 142 64 122 89 b 167 177 121 146 139 170 b 233 161 191 184 214 178 b 243 151 237 158 240 154 b 252 151 246 149 248 147 b 246 188 248 163 246 175 b 252 228 246 201 252 214 b 248 228 249 228 249 229 z m 336 232 b 307 224 325 231 317 225 b 277 226 297 224 287 228 b 284 171 279 207 282 189 b 288 115 285 152 286 134 b 287 60 289 97 287 78 b 283 3 287 41 284 23 b 342 8 304 7 323 6 b 401 2 361 11 380 8 b 397 58 392 22 394 39 b 334 55 375 51 355 48 b 336 232 322 114 332 173 z m 413 200 b 420 76 415 159 417 117 b 466 9 422 45 437 22 b 493 1 475 5 484 3 b 568 48 524 -2 558 13 b 574 89 571 62 574 75 b 572 159 574 112 572 136 b 579 226 571 181 570 204 b 578 234 580 228 582 231 b 547 227 568 231 558 226 b 517 233 536 227 526 231 b 516 225 515 229 515 227 b 525 197 521 216 523 206 b 529 163 526 185 528 174 b 525 87 532 138 531 112 b 512 60 522 78 519 68 b 477 57 503 49 489 47 b 465 75 471 62 467 68 b 461 109 462 86 460 97 b 472 224 461 147 463 186 b 470 233 472 227 474 230 b 408 233 450 227 429 224 b 413 200 411 222 412 211 z m 742 171 b 706 234 751 202 735 229 b 685 234 699 235 692 235 b 613 232 661 231 637 227 b 607 229 611 232 609 232 b 611 203 611 222 610 212 b 613 175 612 194 612 184 b 608 52 617 134 616 93 b 599 15 606 40 602 27 b 599 1 598 10 595 5 b 606 1 602 -1 604 0 b 644 8 618 7 631 9 b 690 8 659 8 675 8 b 761 63 727 8 751 26 b 734 141 770 98 763 123 b 729 146 732 142 730 143 b 742 171 734 154 739 162 z m 655 108 b 705 109 672 115 689 115 b 710 59 723 103 725 72 b 659 49 694 46 677 45 b 655 108 656 69 653 88 z m 659 183 b 694 178 675 193 685 191 b 678 158 693 164 689 160 b 658 157 672 156 665 155 b 659 183 657 167 658 175 z "},"^":{"ha":828,"x_min":0,"x_max":0,"o":"m 113 406 b 111 416 110 410 111 413 b 117 483 113 439 114 461 b 115 495 117 487 119 492 b 61 494 98 488 80 486 b 70 382 65 456 67 419 b 62 267 72 344 65 308 b 113 267 80 276 97 270 b 110 294 115 278 112 286 b 121 345 107 313 108 330 b 139 369 127 352 131 361 b 174 266 158 337 166 302 b 203 272 185 268 193 272 b 233 269 213 273 223 269 b 230 276 233 272 232 274 b 207 314 220 287 214 301 b 167 410 192 345 181 378 b 179 427 170 416 174 421 b 221 479 193 444 207 461 b 229 494 225 483 229 487 b 199 487 218 493 209 486 b 165 494 188 487 178 492 b 113 406 156 459 139 430 z m 315 282 b 383 265 338 281 360 275 b 378 296 382 277 379 286 b 379 327 377 306 381 315 b 301 321 353 310 327 309 b 297 367 299 336 295 351 b 323 366 306 369 314 367 b 347 360 331 365 337 358 b 343 391 345 371 344 381 b 343 423 341 401 346 411 b 297 409 329 412 315 406 b 301 446 297 423 299 435 b 377 439 327 457 351 449 b 378 497 372 460 373 478 b 243 495 333 486 289 483 b 245 264 264 418 264 342 b 315 282 269 277 291 282 z m 437 272 b 473 266 449 272 460 267 b 462 354 464 296 460 325 b 488 358 471 357 480 358 b 508 327 498 349 504 338 b 524 272 515 309 521 291 b 528 264 525 269 525 265 b 530 264 529 264 530 264 b 533 265 531 264 532 265 b 572 272 545 274 558 276 b 583 273 576 271 579 270 b 538 373 558 302 541 334 b 560 416 551 385 557 399 b 502 493 566 455 542 489 b 476 494 493 494 485 494 b 415 496 455 492 435 493 b 404 495 411 497 407 498 b 410 468 406 486 409 477 b 417 326 417 421 421 374 b 403 270 416 307 414 287 b 403 266 403 270 403 269 b 437 272 415 266 426 271 z m 466 439 b 468 449 467 442 467 446 b 509 436 482 454 502 448 b 503 407 516 425 514 414 b 464 408 488 398 478 398 b 466 439 465 419 465 429 z m 767 267 b 757 371 758 301 757 336 b 760 477 757 406 759 442 b 759 499 760 484 761 491 b 708 498 742 487 725 490 b 710 454 704 482 709 468 b 712 409 712 439 713 424 b 711 365 712 395 715 381 b 702 379 707 371 705 375 b 662 453 687 402 674 427 b 641 495 656 467 649 482 b 618 491 633 493 626 491 b 597 496 611 490 605 497 b 600 459 598 483 599 471 b 604 381 601 433 603 407 b 599 273 606 345 607 309 b 600 265 598 271 597 268 b 652 267 616 269 634 275 b 650 278 653 272 651 275 b 645 303 648 286 645 294 b 644 396 645 334 643 365 b 647 404 645 398 643 402 b 650 400 648 402 649 401 b 695 321 665 373 680 347 b 720 265 704 303 716 286 b 722 262 720 264 721 264 b 766 263 736 268 751 264 b 767 267 766 266 767 266 z m 248 228 b 244 228 247 228 245 228 b 205 225 232 219 219 220 b 163 229 191 229 177 232 b 72 155 119 222 88 197 b 63 106 66 139 64 123 b 137 11 62 59 99 21 b 204 10 160 5 182 4 b 253 5 221 15 238 16 b 257 4 254 4 255 4 b 252 33 255 14 253 24 b 251 63 251 43 251 53 b 253 93 250 73 256 82 b 242 82 247 91 245 86 b 168 56 226 59 196 48 b 121 117 142 64 122 89 b 167 177 121 146 139 170 b 233 161 191 184 214 178 b 243 151 237 158 240 154 b 252 151 246 149 248 147 b 246 188 248 163 246 175 b 252 228 246 201 252 214 b 248 228 249 228 249 229 z m 336 232 b 307 224 325 231 317 225 b 277 226 297 224 287 228 b 284 171 279 207 282 189 b 288 115 285 152 286 134 b 287 60 289 97 287 78 b 283 3 287 41 284 23 b 342 8 304 7 323 6 b 401 2 361 11 380 8 b 397 58 392 22 394 39 b 334 55 375 51 355 48 b 336 232 322 114 332 173 z m 413 200 b 420 76 415 159 417 117 b 466 9 422 45 437 22 b 493 1 475 5 484 3 b 568 48 524 -2 558 13 b 574 89 571 62 574 75 b 572 159 574 112 572 136 b 579 226 571 181 570 204 b 578 234 580 228 582 231 b 547 227 568 231 558 226 b 517 233 536 227 526 231 b 516 225 515 229 515 227 b 525 197 521 216 523 206 b 529 163 526 185 528 174 b 525 87 532 138 531 112 b 512 60 522 78 519 68 b 477 57 503 49 489 47 b 465 75 471 62 467 68 b 461 109 462 86 460 97 b 472 224 461 147 463 186 b 470 233 472 227 474 230 b 408 233 450 227 429 224 b 413 200 411 222 412 211 z m 742 171 b 706 234 751 202 735 229 b 685 234 699 235 692 235 b 613 232 661 231 637 227 b 607 229 611 232 609 232 b 611 203 611 222 610 212 b 613 175 612 194 612 184 b 608 52 617 134 616 93 b 599 15 606 40 602 27 b 599 1 598 10 595 5 b 606 1 602 -1 604 0 b 644 8 618 7 631 9 b 690 8 659 8 675 8 b 761 63 727 8 751 26 b 734 141 770 98 763 123 b 729 146 732 142 730 143 b 742 171 734 154 739 162 z m 655 108 b 705 109 672 115 689 115 b 710 59 723 103 725 72 b 659 49 694 46 677 45 b 655 108 656 69 653 88 z m 659 183 b 694 178 675 193 685 191 b 678 158 693 164 689 160 b 658 157 672 156 665 155 b 659 183 657 167 658 175 z "},"_":{"ha":828,"x_min":0,"x_max":0,"o":"m 113 406 b 111 416 110 410 111 413 b 117 483 113 439 114 461 b 115 495 117 487 119 492 b 61 494 98 488 80 486 b 70 382 65 456 67 419 b 62 267 72 344 65 308 b 113 267 80 276 97 270 b 110 294 115 278 112 286 b 121 345 107 313 108 330 b 139 369 127 352 131 361 b 174 266 158 337 166 302 b 203 272 185 268 193 272 b 233 269 213 273 223 269 b 230 276 233 272 232 274 b 207 314 220 287 214 301 b 167 410 192 345 181 378 b 179 427 170 416 174 421 b 221 479 193 444 207 461 b 229 494 225 483 229 487 b 199 487 218 493 209 486 b 165 494 188 487 178 492 b 113 406 156 459 139 430 z m 315 282 b 383 265 338 281 360 275 b 378 296 382 277 379 286 b 379 327 377 306 381 315 b 301 321 353 310 327 309 b 297 367 299 336 295 351 b 323 366 306 369 314 367 b 347 360 331 365 337 358 b 343 391 345 371 344 381 b 343 423 341 401 346 411 b 297 409 329 412 315 406 b 301 446 297 423 299 435 b 377 439 327 457 351 449 b 378 497 372 460 373 478 b 243 495 333 486 289 483 b 245 264 264 418 264 342 b 315 282 269 277 291 282 z m 437 272 b 473 266 449 272 460 267 b 462 354 464 296 460 325 b 488 358 471 357 480 358 b 508 327 498 349 504 338 b 524 272 515 309 521 291 b 528 264 525 269 525 265 b 530 264 529 264 529 264 b 533 265 531 264 532 265 b 572 272 545 274 558 276 b 583 273 575 271 579 270 b 538 373 558 302 541 334 b 560 416 551 385 557 399 b 502 493 566 455 542 489 b 476 494 493 494 485 494 b 415 496 455 492 435 493 b 404 495 411 497 407 498 b 410 468 406 486 409 477 b 417 326 417 421 421 374 b 403 270 416 307 414 287 b 403 266 403 270 403 269 b 437 272 415 266 426 271 z m 466 439 b 468 449 467 442 467 446 b 509 436 482 454 502 448 b 503 407 516 425 514 414 b 464 408 488 398 478 398 b 466 439 465 419 465 429 z m 767 267 b 757 371 758 301 757 336 b 760 477 757 407 759 442 b 759 499 760 484 761 491 b 708 498 742 487 725 490 b 710 454 704 482 709 468 b 712 409 712 439 713 424 b 711 365 712 396 715 381 b 702 379 707 371 705 375 b 662 453 687 402 674 427 b 641 495 656 467 649 482 b 618 491 633 493 626 491 b 597 496 611 491 605 497 b 599 459 598 483 599 471 b 604 381 601 433 603 407 b 599 273 606 345 607 309 b 600 265 598 271 597 268 b 652 267 616 269 634 275 b 650 278 653 272 651 275 b 645 303 648 286 645 294 b 644 396 645 334 643 365 b 647 404 645 398 643 402 b 650 400 648 402 649 401 b 695 321 665 373 680 347 b 720 265 704 303 716 286 b 722 262 720 264 721 264 b 766 263 736 268 751 264 b 767 267 766 266 767 266 z m 248 228 b 244 228 247 228 245 228 b 205 225 232 219 219 220 b 163 229 191 229 177 232 b 72 155 119 222 88 197 b 63 106 66 139 64 123 b 137 11 62 59 99 21 b 204 10 160 5 182 4 b 253 5 221 15 238 16 b 257 4 254 4 255 4 b 252 33 255 14 253 24 b 251 63 251 43 251 53 b 253 93 250 73 256 82 b 242 82 247 91 245 86 b 168 56 226 59 196 48 b 121 117 142 64 122 89 b 167 177 121 146 139 170 b 233 161 191 184 214 178 b 243 151 237 158 240 154 b 252 151 246 149 248 147 b 246 188 248 163 246 175 b 252 228 246 201 252 214 b 248 228 249 228 249 229 z m 336 232 b 307 224 325 231 317 225 b 277 226 297 224 287 228 b 284 171 279 207 282 189 b 288 115 285 152 286 134 b 287 60 289 97 287 78 b 283 3 287 41 284 23 b 342 8 304 7 323 6 b 401 2 361 11 380 8 b 397 58 392 22 394 39 b 334 55 375 51 355 48 b 336 232 322 114 332 173 z m 413 200 b 420 76 415 159 417 117 b 466 9 422 45 437 22 b 493 1 475 5 484 3 b 568 48 524 -2 558 13 b 574 89 571 62 574 75 b 572 159 574 112 572 136 b 579 226 571 181 570 204 b 578 234 580 228 582 231 b 547 227 568 231 558 226 b 517 233 536 227 526 231 b 516 225 515 229 515 227 b 525 197 521 216 523 206 b 529 163 526 185 528 174 b 525 87 532 138 531 112 b 512 60 522 78 519 68 b 477 57 503 49 489 47 b 465 75 471 62 467 68 b 460 109 462 86 460 97 b 472 224 461 147 463 186 b 470 233 472 227 474 230 b 408 233 450 227 429 224 b 413 200 411 222 412 211 z m 742 171 b 706 234 751 202 735 229 b 685 234 699 235 692 235 b 613 232 661 231 637 227 b 607 229 611 232 609 232 b 611 203 611 222 610 212 b 613 175 612 194 612 184 b 608 52 617 134 616 93 b 599 15 606 40 602 27 b 599 1 598 10 595 5 b 606 1 602 -1 604 0 b 644 8 618 7 631 9 b 690 8 659 8 675 8 b 761 63 727 8 751 26 b 734 141 770 98 763 123 b 729 146 732 142 730 143 b 742 171 734 154 739 162 z m 655 108 b 705 109 672 115 689 115 b 710 59 723 103 725 72 b 659 49 694 46 677 45 b 655 108 656 69 653 88 z m 659 183 b 694 178 675 193 685 191 b 678 158 693 164 689 160 b 658 157 672 156 665 155 b 659 183 657 167 658 175 z "},"`":{"ha":828,"x_min":0,"x_max":0,"o":"m 113 406 b 111 416 110 410 111 413 b 117 483 113 439 114 461 b 115 495 117 487 119 492 b 61 494 98 488 80 486 b 70 382 65 456 67 419 b 62 267 72 344 65 308 b 113 267 80 276 97 270 b 110 294 115 278 112 286 b 121 345 107 313 108 330 b 139 369 127 352 131 361 b 174 266 158 337 166 302 b 203 272 185 268 193 272 b 233 269 213 273 223 269 b 230 276 233 272 232 274 b 207 314 220 287 214 301 b 167 410 192 345 181 378 b 179 427 170 416 174 421 b 221 479 193 444 207 461 b 229 494 225 483 229 487 b 199 487 218 493 209 486 b 165 494 188 487 178 492 b 113 406 156 459 139 430 z m 315 282 b 383 265 338 281 360 275 b 378 296 382 277 379 286 b 379 327 377 306 381 315 b 301 321 353 310 327 309 b 297 367 299 336 295 351 b 323 366 306 369 314 367 b 347 360 331 365 337 358 b 343 391 345 371 344 381 b 343 423 341 401 346 411 b 297 409 329 412 315 406 b 301 446 297 423 299 435 b 377 439 327 457 351 449 b 378 497 372 460 373 478 b 243 495 333 486 289 483 b 245 264 264 418 264 342 b 315 282 269 277 291 282 z m 437 272 b 473 266 449 272 460 267 b 462 354 464 296 460 325 b 488 358 471 357 480 358 b 508 327 498 349 504 338 b 524 272 515 309 521 291 b 528 264 525 269 525 265 b 530 264 529 264 529 264 b 533 265 531 264 532 265 b 572 272 545 274 558 276 b 583 273 575 271 579 270 b 538 373 558 302 541 334 b 560 416 551 385 557 399 b 502 493 566 455 542 489 b 476 494 493 494 485 494 b 415 496 455 492 435 493 b 404 495 411 497 407 498 b 410 468 406 486 409 477 b 417 326 417 421 421 374 b 403 270 416 307 414 287 b 403 266 403 270 403 269 b 437 272 415 266 426 271 z m 466 439 b 468 449 467 442 467 446 b 509 436 482 454 502 448 b 503 407 516 425 514 414 b 464 408 488 398 478 398 b 466 439 465 419 465 429 z m 767 267 b 757 371 758 301 757 336 b 760 477 757 407 759 442 b 759 499 760 484 761 491 b 708 498 742 487 725 490 b 710 454 704 482 709 468 b 712 409 712 439 713 424 b 711 365 712 396 715 381 b 702 379 707 371 705 375 b 662 453 687 402 674 427 b 641 495 656 467 649 482 b 618 491 633 493 626 491 b 597 496 611 491 605 497 b 599 459 598 483 599 471 b 604 381 601 433 603 407 b 599 273 606 345 607 309 b 600 265 598 271 597 268 b 652 267 616 269 634 275 b 650 278 653 272 651 275 b 645 303 648 286 645 294 b 644 396 645 334 643 365 b 647 404 645 398 643 402 b 650 400 648 402 649 401 b 695 321 665 373 680 347 b 720 265 704 303 716 286 b 722 262 720 264 721 264 b 766 263 736 268 751 264 b 767 267 766 266 767 266 z m 248 228 b 244 228 247 228 245 228 b 205 225 232 219 219 220 b 163 229 191 229 177 232 b 72 155 119 222 88 197 b 63 106 66 139 64 123 b 137 11 62 59 99 21 b 204 10 160 5 182 4 b 253 5 221 15 238 16 b 257 4 254 4 255 4 b 252 33 255 14 253 24 b 251 63 251 43 251 53 b 253 93 250 73 256 82 b 242 82 247 91 245 86 b 168 56 226 59 196 48 b 121 117 142 64 122 89 b 167 177 121 146 139 170 b 233 161 191 184 214 178 b 243 151 237 158 240 154 b 252 151 246 149 248 147 b 246 188 248 163 246 175 b 252 228 246 201 252 214 b 248 228 249 228 249 229 z m 336 232 b 307 224 325 231 317 225 b 277 226 297 224 287 228 b 284 171 279 207 282 189 b 288 115 285 152 286 134 b 287 60 289 97 287 78 b 283 3 287 41 284 23 b 342 8 304 7 323 6 b 401 2 361 11 380 8 b 397 58 392 22 394 39 b 334 55 375 51 355 48 b 336 232 322 114 332 173 z m 413 200 b 420 76 415 159 417 117 b 466 9 422 45 437 22 b 493 1 475 5 484 3 b 568 48 524 -2 558 13 b 574 89 571 62 574 75 b 572 159 574 112 572 136 b 579 226 571 181 570 204 b 578 234 580 228 582 231 b 547 227 568 231 558 226 b 517 233 536 227 526 231 b 516 225 515 229 515 227 b 525 197 521 216 523 206 b 529 163 526 185 528 174 b 525 87 532 138 531 112 b 512 60 522 78 519 68 b 477 57 503 49 489 47 b 465 75 471 62 467 68 b 460 109 462 86 460 97 b 472 224 461 147 463 186 b 470 233 472 227 474 230 b 408 233 450 227 429 224 b 413 200 411 222 412 211 z m 742 171 b 706 234 751 202 735 229 b 685 234 699 235 692 235 b 613 232 661 231 637 227 b 607 229 611 232 609 232 b 611 203 611 222 610 212 b 613 175 612 194 612 184 b 608 52 617 134 616 93 b 599 15 606 40 602 27 b 599 1 598 10 595 5 b 606 1 602 -1 604 0 b 644 8 618 7 631 9 b 690 8 659 8 675 8 b 761 63 727 8 751 26 b 734 141 770 98 763 123 b 729 146 732 142 730 143 b 742 171 734 154 739 162 z m 655 108 b 705 109 672 115 689 115 b 710 59 723 103 725 72 b 659 49 694 46 677 45 b 655 108 656 69 653 88 z m 659 183 b 694 178 675 193 685 191 b 678 158 693 164 689 160 b 658 157 672 156 665 155 b 659 183 657 167 658 175 z "},"{":{"ha":828,"x_min":0,"x_max":0,"o":"m 113 406 b 111 416 110 410 111 413 b 117 483 113 439 114 461 b 115 495 117 487 119 492 b 61 494 98 488 80 486 b 70 382 65 456 67 419 b 62 267 72 344 65 308 b 113 267 80 276 96 270 b 110 294 115 278 112 286 b 121 345 107 313 108 330 b 139 369 127 352 131 361 b 174 266 158 337 166 302 b 203 272 185 268 193 272 b 233 269 213 273 223 269 b 230 276 233 272 232 274 b 207 314 220 287 214 301 b 167 410 192 345 181 378 b 179 427 170 416 174 421 b 221 479 193 444 207 461 b 229 494 225 483 229 487 b 199 487 218 493 209 486 b 165 494 188 487 178 492 b 113 406 156 459 139 430 z m 315 282 b 383 265 338 281 360 275 b 378 296 382 277 379 286 b 379 327 377 306 381 315 b 301 321 353 310 327 309 b 297 367 299 336 295 351 b 323 366 306 369 314 367 b 347 360 331 365 337 358 b 343 391 345 371 344 381 b 343 423 341 401 346 411 b 297 409 329 412 315 406 b 301 446 297 423 299 435 b 377 439 327 457 351 449 b 378 497 372 460 373 478 b 243 495 333 486 289 483 b 245 264 264 418 264 342 b 315 282 269 277 291 282 z m 437 272 b 473 266 449 272 460 267 b 462 354 464 296 460 325 b 488 358 471 357 480 358 b 508 327 498 349 504 338 b 524 272 515 309 521 291 b 528 264 525 269 525 265 b 530 264 529 264 530 264 b 533 265 531 264 532 265 b 572 272 545 274 558 276 b 583 273 576 271 579 270 b 538 373 558 302 541 334 b 560 416 551 385 557 399 b 502 493 566 455 542 489 b 476 494 493 494 485 494 b 415 496 455 492 435 493 b 404 495 411 497 407 498 b 410 468 406 486 409 477 b 417 326 417 421 421 374 b 403 270 416 307 414 287 b 403 266 403 270 403 269 b 437 272 415 266 426 271 z m 466 439 b 468 449 467 442 467 446 b 509 436 482 454 502 448 b 503 407 516 425 514 414 b 464 408 488 398 478 398 b 466 439 465 419 465 429 z m 767 267 b 757 371 758 301 757 336 b 760 477 757 406 759 442 b 759 499 760 484 761 491 b 708 498 742 487 725 490 b 710 454 704 482 709 468 b 712 409 712 439 713 424 b 711 365 712 395 715 381 b 702 379 707 371 705 375 b 662 453 687 402 674 427 b 641 495 656 467 649 482 b 618 491 633 493 626 491 b 597 496 611 490 605 497 b 600 459 598 483 599 471 b 604 381 601 433 603 407 b 599 273 606 345 607 309 b 600 265 598 271 597 268 b 652 267 616 269 634 275 b 650 278 653 272 651 275 b 645 303 648 286 645 294 b 644 396 645 334 643 365 b 647 404 645 398 643 402 b 650 400 648 402 649 401 b 695 321 665 373 680 347 b 720 265 704 303 716 286 b 722 262 720 264 721 264 b 766 263 736 268 751 264 b 767 267 766 266 767 266 z m 248 228 b 244 228 247 228 245 228 b 205 225 232 219 219 220 b 163 229 191 229 177 232 b 72 155 119 222 88 197 b 63 106 66 139 64 123 b 138 11 62 59 99 21 b 204 10 160 5 182 4 b 253 5 221 15 238 16 b 257 4 254 4 255 4 b 252 33 255 14 253 24 b 251 63 251 43 251 53 b 253 93 250 73 256 82 b 242 82 247 91 245 86 b 168 56 226 59 196 48 b 121 117 142 64 122 89 b 167 177 121 146 139 170 b 233 161 191 184 214 178 b 243 151 237 158 240 154 b 252 151 246 149 248 147 b 246 188 248 163 246 175 b 252 228 246 201 252 214 b 248 228 249 228 249 229 z m 336 232 b 307 224 325 231 317 225 b 277 226 297 224 287 228 b 284 171 279 207 282 189 b 288 115 285 152 286 134 b 287 60 289 97 287 78 b 283 3 287 41 284 23 b 342 8 304 7 323 6 b 401 2 361 11 380 8 b 397 58 392 22 394 39 b 334 55 375 51 355 48 b 336 232 322 114 332 173 z m 413 200 b 420 76 415 159 417 117 b 466 9 422 45 437 22 b 493 1 475 5 484 3 b 568 48 524 -2 558 13 b 574 89 571 62 574 75 b 572 159 574 112 572 136 b 579 226 571 181 570 204 b 578 234 580 228 582 231 b 547 227 568 231 558 226 b 517 233 536 227 526 231 b 516 225 515 229 515 227 b 525 197 521 216 523 206 b 529 163 526 185 528 174 b 525 87 532 138 531 112 b 512 60 522 78 519 68 b 477 57 503 49 489 47 b 465 75 471 62 467 68 b 461 109 462 86 460 97 b 472 224 461 147 463 186 b 470 233 472 227 474 230 b 408 233 450 227 429 224 b 413 200 411 222 412 211 z m 742 171 b 706 234 751 202 735 229 b 685 234 699 235 692 235 b 613 232 661 231 637 227 b 607 229 611 232 609 232 b 611 203 611 222 610 212 b 613 175 612 194 612 184 b 608 52 617 134 616 93 b 599 15 606 40 602 27 b 599 1 598 10 595 5 b 606 1 602 -1 604 0 b 644 8 618 7 631 9 b 690 8 659 8 675 8 b 761 63 727 8 751 26 b 734 141 770 98 763 123 b 729 146 732 142 730 143 b 742 171 734 154 739 162 z m 655 108 b 705 109 672 115 689 115 b 710 59 723 103 725 72 b 659 49 694 46 677 45 b 655 108 656 69 653 88 z m 660 183 b 694 178 675 193 685 191 b 678 158 693 164 689 160 b 658 157 672 156 665 155 b 660 183 657 167 658 175 z "},"|":{"ha":828,"x_min":0,"x_max":0,"o":"m 113 406 b 111 416 110 410 111 413 b 117 483 113 439 114 461 b 115 495 117 487 119 492 b 61 494 98 488 80 486 b 70 382 65 456 67 419 b 62 267 72 344 65 308 b 113 267 80 276 97 270 b 110 294 115 278 112 286 b 121 345 107 313 108 330 b 139 369 127 352 131 361 b 174 266 158 337 166 302 b 203 272 185 268 193 272 b 233 269 213 273 223 269 b 230 276 233 272 232 274 b 207 314 220 287 214 301 b 167 410 192 345 181 378 b 179 427 170 416 174 421 b 221 479 193 444 207 461 b 229 494 225 483 229 487 b 199 487 218 493 209 486 b 165 494 188 487 178 492 b 113 406 156 459 139 430 z m 315 282 b 383 265 338 281 360 275 b 378 296 382 277 379 286 b 379 327 377 306 381 315 b 301 321 353 310 327 309 b 297 367 299 336 295 351 b 323 366 306 369 314 367 b 347 360 331 365 337 358 b 343 391 345 371 344 381 b 343 423 341 401 346 411 b 297 409 329 412 315 406 b 301 446 297 423 299 435 b 377 439 327 457 351 449 b 378 497 372 460 373 478 b 243 495 333 486 289 483 b 245 264 264 418 264 342 b 315 282 269 277 291 282 z m 437 272 b 473 266 449 272 460 267 b 462 354 464 296 460 325 b 488 358 471 357 480 358 b 508 327 498 349 504 338 b 524 272 515 309 521 291 b 528 264 525 269 525 265 b 530 264 529 264 529 264 b 533 265 531 264 532 265 b 572 272 545 274 558 276 b 583 273 575 271 579 270 b 538 373 558 302 541 334 b 560 416 551 385 557 399 b 502 493 566 455 542 489 b 476 494 493 494 485 494 b 415 496 455 492 435 493 b 404 495 411 497 407 498 b 410 468 406 486 409 477 b 417 326 417 421 421 374 b 403 270 416 307 414 287 b 403 266 403 270 403 269 b 437 272 415 266 426 271 z m 466 439 b 468 449 467 442 467 446 b 509 436 482 454 502 448 b 503 407 516 425 514 414 b 464 408 488 398 478 398 b 466 439 465 419 465 429 z m 767 267 b 757 371 758 301 757 336 b 760 477 757 406 759 442 b 759 499 760 484 761 491 b 708 498 742 487 725 490 b 710 454 704 482 709 468 b 712 409 712 439 713 424 b 711 365 712 395 715 381 b 702 379 707 371 705 375 b 662 453 687 402 674 427 b 641 495 656 467 649 482 b 618 491 633 493 626 491 b 597 496 611 490 605 497 b 599 459 598 483 599 471 b 604 381 601 433 603 407 b 599 273 606 345 607 309 b 600 265 598 271 597 268 b 652 267 616 269 634 275 b 650 278 653 272 651 275 b 645 303 648 286 645 294 b 644 396 645 334 643 365 b 647 404 645 398 643 402 b 650 400 648 402 649 401 b 695 321 665 373 680 347 b 720 265 704 303 716 286 b 722 262 720 264 721 264 b 766 263 736 268 751 264 b 767 267 766 266 767 266 z m 248 228 b 244 228 247 228 245 228 b 205 225 232 219 219 220 b 163 229 191 229 177 232 b 72 155 119 222 88 197 b 63 106 66 139 64 123 b 137 11 62 59 99 21 b 204 10 160 5 182 4 b 253 5 221 15 238 16 b 257 4 254 4 255 4 b 252 33 255 14 253 24 b 251 63 251 43 251 53 b 253 93 250 73 256 82 b 242 82 247 91 245 86 b 168 56 226 59 196 48 b 121 117 142 64 122 89 b 167 177 121 146 139 170 b 233 161 191 184 214 178 b 243 151 237 158 240 154 b 252 151 246 149 248 147 b 246 188 248 163 246 175 b 252 228 246 201 252 214 b 248 228 249 228 249 229 z m 336 232 b 307 224 325 231 317 225 b 277 226 297 224 287 228 b 284 171 279 207 282 189 b 288 115 285 152 286 134 b 287 60 289 97 287 78 b 283 3 287 41 284 23 b 342 8 304 7 323 6 b 401 2 361 11 380 8 b 397 58 392 22 394 39 b 334 55 375 51 355 48 b 336 232 322 114 332 173 z m 413 200 b 420 76 415 159 417 117 b 466 9 422 45 437 22 b 493 1 475 5 484 3 b 568 48 524 -2 558 13 b 574 89 571 62 574 75 b 572 159 574 112 572 136 b 579 226 571 181 570 204 b 578 234 580 228 582 231 b 547 227 568 231 558 226 b 517 233 536 227 526 231 b 516 225 515 229 515 227 b 525 197 521 216 523 206 b 529 163 526 185 528 174 b 525 87 532 138 531 112 b 512 60 522 78 519 68 b 477 57 503 49 489 47 b 465 75 471 62 467 68 b 461 109 462 86 460 97 b 472 224 461 147 463 186 b 470 233 472 227 474 230 b 408 233 450 227 429 224 b 413 200 411 222 412 211 z m 742 171 b 706 234 751 202 735 229 b 685 234 699 235 692 235 b 613 232 661 231 637 227 b 607 229 611 232 609 232 b 611 203 611 222 610 212 b 613 175 612 194 612 184 b 608 52 617 134 616 93 b 599 15 606 40 602 27 b 599 1 598 10 595 5 b 606 1 602 -1 604 0 b 644 8 618 7 631 9 b 690 8 659 8 675 8 b 761 63 727 8 751 26 b 734 141 770 98 763 123 b 729 146 732 142 730 143 b 742 171 734 154 739 162 z m 655 108 b 705 109 672 115 689 115 b 710 59 723 103 725 72 b 659 49 694 46 677 45 b 655 108 656 69 653 88 z m 659 183 b 694 178 675 193 685 191 b 678 158 693 164 689 160 b 658 157 672 156 665 155 b 659 183 657 167 658 175 z "},"}":{"ha":828,"x_min":0,"x_max":0,"o":"m 113 406 b 111 416 110 410 111 413 b 117 483 113 439 114 461 b 115 495 117 487 119 492 b 61 494 98 488 80 486 b 70 382 65 456 67 419 b 62 267 72 344 65 308 b 113 267 80 276 96 270 b 110 294 115 278 112 286 b 121 345 107 313 108 330 b 139 369 127 352 131 361 b 174 266 158 337 166 302 b 203 272 185 268 193 272 b 233 269 213 273 223 269 b 230 276 233 272 232 274 b 207 314 220 287 214 301 b 167 410 192 345 181 378 b 179 427 170 416 174 421 b 221 479 193 444 207 461 b 229 494 225 483 229 487 b 199 487 218 493 209 486 b 165 494 188 487 178 492 b 113 406 156 459 139 430 z m 315 282 b 383 265 338 281 360 275 b 378 296 382 277 379 286 b 379 327 377 306 381 315 b 301 321 353 310 327 309 b 297 367 299 336 295 351 b 323 366 306 369 314 367 b 347 360 331 365 337 358 b 343 391 345 371 344 381 b 343 423 341 401 346 411 b 297 409 329 412 315 406 b 301 446 297 423 299 435 b 377 439 327 457 351 449 b 378 497 372 460 373 478 b 243 495 333 486 289 483 b 245 264 264 418 264 342 b 315 282 269 277 291 282 z m 437 272 b 473 266 449 272 460 267 b 462 354 464 296 460 325 b 488 358 471 357 480 358 b 508 327 498 349 504 338 b 524 272 515 309 521 291 b 528 264 525 269 525 265 b 530 264 529 264 530 264 b 533 265 531 264 532 265 b 572 272 545 274 558 276 b 583 273 575 271 579 270 b 538 373 558 302 541 334 b 560 416 551 385 557 399 b 502 493 566 455 542 489 b 476 494 493 494 485 494 b 415 496 455 492 435 493 b 404 495 411 497 407 498 b 410 468 406 486 409 477 b 417 326 417 421 421 374 b 403 270 416 307 414 287 b 403 266 403 270 403 269 b 437 272 415 266 426 271 z m 466 439 b 468 449 467 442 467 446 b 509 436 482 454 502 448 b 503 407 516 425 514 414 b 464 408 488 398 478 398 b 466 439 465 419 465 429 z m 767 267 b 757 371 758 301 757 336 b 760 477 757 406 759 442 b 759 499 760 484 761 491 b 708 498 742 487 725 490 b 710 454 704 482 709 468 b 712 409 712 439 713 424 b 711 365 712 395 715 381 b 702 379 707 371 705 375 b 662 453 687 402 674 427 b 641 495 656 467 649 482 b 618 491 633 493 626 491 b 597 496 611 490 605 497 b 599 459 598 483 599 471 b 604 381 601 433 603 407 b 599 273 606 345 607 309 b 600 265 598 271 597 268 b 652 267 616 269 634 275 b 650 278 653 272 651 275 b 645 303 648 286 645 294 b 644 396 645 334 643 365 b 647 404 645 398 643 402 b 650 400 648 402 649 401 b 695 321 665 373 680 347 b 720 265 704 303 716 286 b 722 262 720 264 721 264 b 766 263 736 268 751 264 b 767 267 766 266 767 266 z m 248 228 b 244 228 247 228 245 228 b 205 225 232 219 219 220 b 163 229 191 229 177 232 b 72 155 119 222 88 197 b 63 106 66 139 64 123 b 137 11 62 59 99 21 b 204 10 160 5 182 4 b 253 5 221 15 238 16 b 257 4 254 4 255 4 b 252 33 255 14 253 24 b 251 63 251 43 251 53 b 253 93 250 73 256 82 b 242 82 247 91 245 86 b 168 56 226 59 196 48 b 121 117 142 64 122 89 b 167 177 121 146 139 170 b 233 161 191 184 214 178 b 243 151 237 158 240 154 b 252 151 246 149 248 147 b 246 188 248 163 246 175 b 252 228 246 201 252 214 b 248 228 249 228 249 229 z m 336 232 b 307 224 325 231 317 225 b 277 226 297 224 287 228 b 284 171 279 207 282 189 b 288 115 285 152 286 134 b 287 60 289 97 287 78 b 283 3 287 41 284 23 b 342 8 304 7 323 6 b 401 2 361 11 380 8 b 397 58 392 22 394 39 b 334 55 375 51 355 48 b 336 232 322 114 332 173 z m 413 200 b 420 76 415 159 417 117 b 466 9 422 45 437 22 b 493 1 475 5 484 3 b 568 48 524 -2 558 13 b 574 89 571 62 574 75 b 572 159 574 112 572 136 b 579 226 571 181 570 204 b 578 234 580 228 582 231 b 547 227 568 231 558 226 b 517 233 536 227 526 231 b 516 225 515 229 515 227 b 525 197 521 216 523 206 b 529 163 526 185 528 174 b 525 87 532 138 531 112 b 512 60 522 78 519 68 b 477 57 503 49 489 47 b 465 75 471 62 467 68 b 461 109 462 86 460 97 b 472 224 461 147 463 186 b 470 233 472 227 474 230 b 408 233 450 227 429 224 b 413 200 411 222 412 211 z m 742 171 b 706 234 751 202 735 229 b 685 234 699 235 692 235 b 613 232 661 231 637 227 b 607 229 611 232 609 232 b 611 203 610 222 610 212 b 613 175 612 194 612 184 b 608 52 617 134 616 93 b 599 15 606 40 602 27 b 599 1 598 10 595 5 b 606 1 602 -1 604 0 b 644 8 618 7 631 9 b 690 8 659 8 675 8 b 761 63 727 8 751 26 b 734 141 770 98 763 123 b 729 146 732 142 730 143 b 742 171 734 154 739 162 z m 655 108 b 705 109 672 115 689 115 b 710 59 723 103 725 72 b 659 49 694 46 677 45 b 655 108 656 69 653 88 z m 659 183 b 694 178 675 193 685 191 b 678 158 693 164 689 160 b 658 157 672 156 665 155 b 659 183 657 167 658 175 z "},"~":{"ha":828,"x_min":0,"x_max":0,"o":"m 113 406 b 111 416 110 410 111 413 b 117 483 113 439 114 461 b 115 495 117 487 119 492 b 61 494 98 488 80 486 b 70 382 65 456 67 419 b 62 267 72 344 65 308 b 113 267 80 276 97 270 b 110 294 115 278 112 286 b 121 345 107 313 108 330 b 139 369 127 352 131 361 b 174 266 158 337 166 302 b 203 272 185 268 193 272 b 233 269 213 273 223 269 b 230 276 233 272 232 274 b 207 314 220 287 214 301 b 167 410 192 345 181 378 b 179 427 170 416 174 421 b 221 479 193 444 207 461 b 229 494 225 483 229 487 b 199 487 218 493 209 486 b 165 494 188 487 178 492 b 113 406 156 459 139 430 z m 315 282 b 383 265 338 281 360 275 b 378 296 382 277 379 286 b 379 327 377 306 381 315 b 301 321 353 310 327 309 b 297 367 299 336 295 351 b 323 366 306 369 314 367 b 347 360 331 365 337 358 b 343 391 345 371 344 381 b 343 423 341 401 346 411 b 297 409 329 412 315 406 b 301 446 297 423 299 435 b 377 439 327 457 351 449 b 378 497 372 460 373 478 b 243 495 333 486 289 483 b 245 264 264 418 264 342 b 315 282 269 277 291 282 z m 437 272 b 473 266 449 272 460 267 b 462 354 464 296 460 325 b 488 358 471 357 480 358 b 508 327 498 349 504 338 b 524 272 515 309 521 291 b 528 264 525 269 525 265 b 530 264 529 264 530 264 b 533 265 531 264 532 265 b 572 272 545 274 558 276 b 583 273 575 271 579 270 b 538 373 558 302 541 334 b 560 416 551 385 557 399 b 502 493 566 455 542 489 b 476 494 493 494 485 494 b 415 496 455 492 435 493 b 404 495 411 497 407 498 b 410 468 406 486 409 477 b 417 326 417 421 421 374 b 403 270 416 307 414 287 b 403 266 403 270 403 269 b 437 272 415 266 426 271 z m 466 439 b 468 449 467 442 467 446 b 509 436 482 454 502 448 b 503 407 516 425 514 414 b 464 408 488 398 478 398 b 466 439 465 419 465 429 z m 767 267 b 757 371 758 301 757 336 b 760 477 757 407 759 442 b 759 499 760 484 761 491 b 708 498 742 487 725 490 b 710 454 704 482 709 468 b 712 409 712 439 713 424 b 711 365 712 396 715 381 b 702 379 707 371 705 375 b 662 453 687 402 674 427 b 641 495 656 467 649 482 b 618 491 633 493 626 491 b 597 496 611 491 605 497 b 599 459 598 483 599 471 b 604 381 601 433 603 407 b 599 273 606 345 607 309 b 600 265 598 271 597 268 b 652 267 616 269 634 275 b 650 278 653 272 651 275 b 645 303 648 286 645 294 b 644 396 645 334 643 365 b 647 404 645 398 643 402 b 650 400 648 402 649 401 b 695 321 665 373 680 347 b 720 265 704 303 716 286 b 722 262 720 264 721 264 b 766 263 736 268 751 264 b 767 267 766 266 767 266 z m 248 228 b 244 228 247 228 245 228 b 205 225 232 219 219 220 b 163 229 191 229 177 232 b 72 155 119 222 88 197 b 63 106 66 139 64 123 b 137 11 62 59 99 21 b 204 10 160 5 182 4 b 253 5 221 15 238 16 b 257 4 254 4 255 4 b 252 33 255 14 253 24 b 251 63 251 43 251 53 b 253 93 250 73 256 82 b 242 82 247 91 245 86 b 168 56 226 59 196 48 b 121 117 142 64 122 89 b 167 177 121 146 139 170 b 233 161 191 184 214 178 b 243 151 237 158 240 154 b 252 151 246 149 248 147 b 246 188 248 163 246 175 b 252 228 246 201 252 214 b 248 228 249 228 249 229 z m 336 232 b 307 224 325 231 317 225 b 277 226 297 224 287 228 b 284 171 279 207 282 189 b 288 115 285 152 286 134 b 287 60 289 97 287 78 b 283 3 287 41 284 23 b 342 8 304 7 323 6 b 401 2 361 11 380 8 b 397 58 392 22 394 39 b 334 55 375 51 355 48 b 336 232 322 114 332 173 z m 413 200 b 420 76 415 159 417 117 b 466 9 422 45 437 22 b 493 1 475 5 484 3 b 568 48 524 -2 558 13 b 574 89 571 62 574 75 b 572 159 574 112 572 136 b 579 226 571 181 570 204 b 578 234 580 228 582 231 b 547 227 568 231 558 226 b 517 233 536 227 526 231 b 516 225 515 229 515 227 b 525 197 521 216 523 206 b 529 163 526 185 528 174 b 525 87 532 138 531 112 b 512 60 522 78 519 68 b 477 57 503 49 489 47 b 465 75 471 62 467 68 b 460 109 462 86 460 97 b 472 224 461 147 463 186 b 470 233 472 227 474 230 b 408 233 450 227 429 224 b 413 200 411 222 412 211 z m 742 171 b 706 234 751 202 735 229 b 685 234 699 235 692 235 b 613 232 661 231 637 227 b 607 229 611 232 609 232 b 611 203 611 222 610 212 b 613 175 612 194 612 184 b 608 52 617 134 616 93 b 599 15 606 40 602 27 b 599 1 598 10 595 5 b 606 1 602 -1 604 0 b 644 8 618 7 631 9 b 690 8 659 8 675 8 b 761 63 727 8 751 26 b 734 141 770 98 763 123 b 729 146 732 142 730 143 b 742 171 734 154 739 162 z m 655 108 b 705 109 672 115 689 115 b 710 59 723 103 725 72 b 659 49 694 46 677 45 b 655 108 656 69 653 88 z m 659 183 b 694 178 675 193 685 191 b 678 158 693 164 689 160 b 658 157 672 156 665 155 b 659 183 657 167 658 175 z "},"":{"ha":400,"x_min":0,"x_max":0,"o":""},"":{"ha":850,"x_min":0,"x_max":0,"o":"m 692 -43 b 731 -3 727 -43 730 -39 b 734 92 732 29 734 60 b 730 187 734 124 732 156 b 708 209 729 202 722 207 b 693 210 703 210 698 210 b 594 207 660 210 627 210 b 419 202 536 201 477 203 b 403 203 414 202 408 202 b 385 223 391 205 386 210 b 384 311 384 252 384 282 b 401 328 384 322 391 327 b 431 330 411 329 421 330 b 496 331 453 331 474 330 b 523 359 517 332 523 337 b 521 557 523 425 522 491 b 493 585 520 579 515 584 b 413 585 466 586 439 585 b 385 613 391 586 386 591 b 396 723 383 650 388 687 b 431 794 402 749 412 773 b 540 803 462 828 503 831 b 587 744 561 787 574 766 b 625 727 600 720 600 720 b 718 761 658 734 688 748 b 777 787 738 770 758 778 b 787 810 786 792 790 800 b 726 936 773 855 758 899 b 506 1050 668 1003 597 1044 b 382 1035 464 1052 422 1048 b 280 964 341 1021 308 996 b 160 702 215 888 167 804 b 153 611 158 672 155 641 b 132 589 152 596 146 590 b 109 591 124 589 117 590 b 82 591 100 591 91 592 b 62 573 69 590 64 585 b 61 558 61 568 61 563 b 61 367 61 494 61 431 b 62 352 61 362 61 357 b 84 331 64 337 69 332 b 122 330 97 330 109 331 b 154 299 149 329 153 326 b 158 151 156 250 160 201 b 160 2 157 101 159 52 b 161 -17 160 -4 160 -10 b 178 -35 162 -27 168 -33 b 197 -36 184 -35 191 -36 b 444 -42 279 -39 362 -41 b 692 -43 527 -43 609 -44 z "},"":{"ha":0,"x_min":0,"x_max":0,"o":""},"":{"ha":828,"x_min":0,"x_max":0,"o":"m 113 406 b 111 416 110 410 111 413 b 117 483 113 439 114 461 b 115 495 117 487 119 492 b 61 494 98 488 80 486 b 70 382 65 456 67 419 b 62 267 72 344 65 308 b 113 267 80 276 97 270 b 110 294 115 278 112 286 b 121 345 107 313 108 330 b 139 369 127 352 131 361 b 174 266 158 337 166 302 b 203 272 185 268 193 272 b 233 269 213 273 223 269 b 230 276 233 272 232 274 b 207 314 220 287 214 301 b 167 410 192 345 181 378 b 179 427 170 416 174 421 b 221 479 193 444 207 461 b 229 494 225 483 229 487 b 199 487 218 493 209 486 b 165 494 188 487 178 492 b 113 406 156 459 139 430 z m 315 282 b 383 265 338 281 360 275 b 378 296 382 277 379 286 b 379 327 377 306 381 315 b 301 321 353 310 327 309 b 297 367 299 336 295 351 b 323 366 306 369 314 367 b 347 360 331 365 337 358 b 343 391 345 371 344 381 b 343 423 341 401 346 411 b 297 409 329 412 315 406 b 301 446 297 423 299 435 b 377 439 327 457 351 449 b 378 497 372 460 373 478 b 243 495 333 486 289 483 b 245 264 264 418 264 342 b 315 282 269 277 291 282 z m 437 272 b 473 266 449 272 460 267 b 462 354 464 296 460 325 b 488 358 471 357 480 358 b 508 327 498 349 504 338 b 524 272 515 309 521 291 b 528 264 525 269 525 265 b 530 264 529 264 529 264 b 533 265 531 264 532 265 b 572 272 545 274 558 276 b 583 273 575 271 579 270 b 538 373 558 302 541 334 b 560 416 551 385 557 399 b 502 493 566 455 542 489 b 476 494 493 494 485 494 b 415 496 455 492 435 493 b 404 495 411 497 407 498 b 410 468 406 486 409 477 b 417 326 417 421 421 374 b 403 270 416 307 414 287 b 403 266 403 270 403 269 b 437 272 415 266 426 271 z m 466 439 b 468 449 467 442 467 446 b 509 436 482 454 502 448 b 503 407 516 425 514 414 b 464 408 488 398 478 398 b 466 439 465 419 465 429 z m 767 267 b 757 371 758 301 757 336 b 760 477 757 406 759 442 b 759 499 760 484 761 491 b 708 498 742 487 725 490 b 710 454 704 482 709 468 b 712 409 712 439 713 424 b 711 365 712 395 715 381 b 702 379 707 371 705 375 b 662 453 687 402 674 427 b 641 495 656 467 649 482 b 618 491 633 493 626 491 b 597 496 611 490 605 497 b 599 459 598 483 599 471 b 604 381 601 433 603 407 b 599 273 606 345 607 309 b 600 265 598 271 597 268 b 652 267 616 269 634 275 b 650 278 653 272 651 275 b 645 303 648 286 645 294 b 644 396 645 334 643 365 b 647 404 645 398 643 402 b 650 400 648 402 649 401 b 695 321 665 373 680 347 b 720 265 704 303 716 286 b 722 262 720 264 721 264 b 766 263 736 268 751 264 b 767 267 766 266 767 266 z m 248 228 b 244 228 247 228 245 228 b 205 225 232 219 219 220 b 163 229 191 229 177 232 b 72 155 119 222 88 197 b 63 106 66 139 64 123 b 138 11 62 59 99 21 b 204 10 160 5 182 4 b 253 5 221 15 238 16 b 257 4 254 4 255 4 b 252 33 255 14 253 24 b 251 63 251 43 251 53 b 253 93 250 73 256 82 b 242 82 247 91 245 86 b 168 56 226 59 196 48 b 121 117 142 64 122 89 b 167 177 121 146 139 170 b 233 161 191 184 214 178 b 243 151 237 158 240 154 b 252 151 246 149 248 147 b 246 188 248 163 246 175 b 252 228 246 201 252 214 b 248 228 249 228 249 229 z m 336 232 b 307 224 325 231 317 225 b 277 226 297 224 287 228 b 284 171 279 207 282 189 b 288 115 285 152 286 134 b 287 60 289 97 287 78 b 283 3 287 41 284 23 b 342 8 304 7 323 6 b 401 2 361 11 380 8 b 397 58 392 22 394 39 b 334 55 375 51 355 48 b 336 232 322 114 332 173 z m 413 200 b 420 76 415 159 417 117 b 466 9 422 45 437 22 b 493 1 475 5 484 3 b 568 48 524 -2 558 13 b 574 89 571 62 574 75 b 572 159 574 112 572 136 b 579 226 571 181 570 204 b 578 234 580 228 582 231 b 547 227 568 231 558 226 b 517 233 536 227 526 231 b 516 225 515 229 515 227 b 525 197 521 216 523 206 b 529 163 526 185 528 174 b 525 87 532 138 531 112 b 512 60 522 78 519 68 b 477 57 503 49 489 47 b 465 75 471 62 467 68 b 460 109 462 86 460 97 b 472 224 461 147 463 186 b 470 233 472 227 474 230 b 408 233 450 227 429 224 b 413 200 411 222 412 211 z m 742 171 b 706 234 751 202 735 229 b 685 234 699 235 692 235 b 613 232 661 231 637 227 b 607 229 611 232 609 232 b 611 203 611 222 610 212 b 613 175 612 194 612 184 b 608 52 617 134 616 93 b 599 15 606 40 602 27 b 599 1 598 10 595 5 b 606 1 602 -1 604 0 b 644 8 618 7 631 9 b 690 8 659 8 675 8 b 761 63 727 8 751 26 b 734 141 770 98 763 123 b 729 146 732 142 730 143 b 742 171 734 154 739 162 z m 655 108 b 705 109 672 115 689 115 b 710 59 723 103 725 72 b 659 49 694 46 677 45 b 655 108 656 69 653 88 z m 659 183 b 694 178 675 193 685 191 b 678 158 693 164 689 160 b 658 157 672 156 665 155 b 659 183 657 167 658 175 z "}}}
